<svg xmlns="http://www.w3.org/2000/svg" xmlns:xlink="http://www.w3.org/1999/xlink" version="1.1" data-diagram-type="DESCRIPTION" style="width:2294px;height:772px;background:#FFFFFF;" width="2294px" height="772px" viewBox="0 0 2294 772" zoomAndPan="magnify" preserveAspectRatio="none" contentStyleType="text/css"><?plantuml 1.2026.8?><defs/><g font-family="sans-serif" lengthAdjust="spacing"><g class="title" data-source-line="2"><text x="837.951" y="29.698" fill="#0F172A" font-size="21" textLength="611.317" font-weight="700" font-family="Arial">PandaStore - Configuration-Supported Deployment Topology</text></g><!--cluster Client--><g class="cluster" data-qualified-name="Client" id="ent0001" data-source-line="5"><polygon points="16,430.148,26,420.148,185,420.148,185,522.148,175,532.148,16,532.148,16,430.148" fill="#F8FAFC" style="stroke:#94A3B8;stroke-width:1;stroke-linejoin:miter;stroke-miterlimit:10;"/><line x1="175" y1="430.148" x2="185" y2="420.148" style="stroke:#94A3B8;stroke-width:1;"/><line x1="16" y1="430.148" x2="175" y2="430.148" style="stroke:#94A3B8;stroke-width:1;"/><line x1="175" y1="430.148" x2="175" y2="532.148" style="stroke:#94A3B8;stroke-width:1;"/><text x="53.317" y="446.28" fill="#000" font-size="14" textLength="86.365" font-weight="700" font-family="Arial">Client device</text></g><!--cluster Frontend--><g class="cluster" data-qualified-name="Frontend" id="ent0003" data-source-line="8"><polygon points="598,282.148,608,272.148,846,272.148,846,457.148,836,467.148,598,467.148,598,282.148" fill="#F8FAFC" style="stroke:#94A3B8;stroke-width:1;stroke-linejoin:miter;stroke-miterlimit:10;"/><line x1="836" y1="282.148" x2="846" y2="272.148" style="stroke:#94A3B8;stroke-width:1;"/><line x1="598" y1="282.148" x2="836" y2="282.148" style="stroke:#94A3B8;stroke-width:1;"/><line x1="836" y1="282.148" x2="836" y2="467.148" style="stroke:#94A3B8;stroke-width:1;"/><text x="660.059" y="298.28" fill="#000" font-size="14" textLength="115.883" font-weight="700" font-family="Arial">Frontend runtime</text><text x="663.928" y="314.378" fill="#000" font-size="14" textLength="108.145" font-weight="700" font-family="Arial">Node.js / Next.js</text><text x="654.197" y="330.477" fill="#000" font-size="14" textLength="127.606" font-weight="700" font-family="Arial">Development :3000</text></g><!--cluster Backend--><g class="cluster" data-qualified-name="Backend" id="ent0005" data-source-line="11"><polygon points="1321.5,175.148,1331.5,165.148,1593.5,165.148,1593.5,350.148,1583.5,360.148,1321.5,360.148,1321.5,175.148" fill="#F8FAFC" style="stroke:#94A3B8;stroke-width:1;stroke-linejoin:miter;stroke-miterlimit:10;"/><line x1="1583.5" y1="175.148" x2="1593.5" y2="165.148" style="stroke:#94A3B8;stroke-width:1;"/><line x1="1321.5" y1="175.148" x2="1583.5" y2="175.148" style="stroke:#94A3B8;stroke-width:1;"/><line x1="1583.5" y1="175.148" x2="1583.5" y2="360.148" style="stroke:#94A3B8;stroke-width:1;"/><text x="1396.707" y="191.28" fill="#000" font-size="14" textLength="113.586" font-weight="700" font-family="Arial">Backend runtime</text><text x="1382.314" y="207.378" fill="#000" font-size="14" textLength="142.372" font-weight="700" font-family="Arial">Java 21 / Spring Boot</text><text x="1389.317" y="223.477" fill="#000" font-size="14" textLength="128.365" font-weight="700" font-family="Arial">PORT default :8080</text></g><!--cluster DBHost--><g class="cluster" data-qualified-name="DBHost" id="ent0007" data-source-line="14"><polygon points="1941.5,196.148,1951.5,186.148,2245.5,186.148,2245.5,345.148,2235.5,355.148,1941.5,355.148,1941.5,196.148" fill="#F8FAFC" style="stroke:#94A3B8;stroke-width:1;stroke-linejoin:miter;stroke-miterlimit:10;"/><line x1="2235.5" y1="196.148" x2="2245.5" y2="186.148" style="stroke:#94A3B8;stroke-width:1;"/><line x1="1941.5" y1="196.148" x2="2235.5" y2="196.148" style="stroke:#94A3B8;stroke-width:1;"/><line x1="2235.5" y1="196.148" x2="2235.5" y2="355.148" style="stroke:#94A3B8;stroke-width:1;"/><text x="1978.283" y="212.28" fill="#000" font-size="14" textLength="222.435" font-weight="700" font-family="Arial">Configured PostgreSQL endpoint</text><text x="1975.135" y="228.378" fill="#000" font-size="14" textLength="228.73" font-weight="700" font-family="Arial">Self-hosted or Supabase database</text></g><!--cluster Upload--><g class="cluster" data-qualified-name="Upload" id="ent0009" data-source-line="17"><path d="M633.65,509.089 C636.332,502.712 642.664,501.605 647.34,506.712 C651.669,499.994 657.763,498.746 661.989,506.815 C666.736,499.325 672.785,499.07 677.427,506.921 C681.292,499.445 687.605,497.772 692.748,505.645 C697.886,496.659 703.297,496.681 708.908,505.209 C712.882,496.46 718.283,497.785 724.115,503.218 C727.664,497.855 734.164,498.296 737.193,503.841 C743.168,497.108 748.306,497.972 752.833,505.437 C757.552,496.847 763.953,498.1 768.791,505.317 C773.09,498.871 779.212,499.64 783.095,505.789 C787.494,500.018 794.46,499.65 798.021,506.76 C807.446,499.779 817.573,500.309 820,514.148 C821.894,513.745 822.858,514.741 822.287,516.619 C829.888,519.551 830.377,526.21 823.191,530.131 C829.93,532.551 830.429,536.768 826.063,541.898 C833.338,545.151 834.91,551.23 829.277,557.195 C835.639,560.042 835.489,564.92 830.445,568.905 C836.285,574.689 835.463,579.544 827.58,582.419 C834.962,587.667 832.427,593.211 826.061,597.029 C832.597,601.949 831.856,608.71 823.95,611.527 C828.518,621.158 823.607,629.441 813,630.148 C814.388,630.571 814.483,631.316 813.751,632.435 C808.719,638.595 803.504,639.589 799.455,631.453 C795.197,639.011 789.165,639.416 783.223,633.48 C779.05,640.24 774.068,640.667 769.081,634.36 C764.257,641.745 759.591,641.241 754.707,634.421 C750.285,642.002 743.591,642.08 739.321,634.269 C733.973,641.34 727.951,642.19 722.445,634.449 C717.954,641.063 713.262,640.804 709.011,634.206 C704.435,641.933 697.14,641.534 692.341,634.456 C687.592,641.502 680.669,639.727 677.791,632.543 C674.103,639.37 667.052,640.647 662.616,633.347 C658.67,641.777 651.166,640.462 647.18,633.386 C636.707,641.367 624.779,637.116 624,623.148 C624.884,622.517 625.675,622.455 626.001,623.733 C619.196,621.947 618.146,616.14 622.301,611.136 C615.113,608.32 615.492,601.661 620.901,597.547 C612.542,594.207 611.192,589.83 617.977,583.366 C610.884,579.229 611.975,575.288 617.464,570.644 C612.085,565.749 610.913,559.458 619.213,556.221 C612.734,551.472 612.349,545.055 620.401,541.477 C616.025,535.917 618.039,532.483 623.896,530.055 C616.92,519.419 616.88,511.241 631,507.148 C632.708,506.404 633.741,507.377 633.65,509.089" style="stroke:#94A3B8;stroke-width:1;" fill="#F8FAFC"/><text x="653.152" y="525.28" fill="#000" font-size="14" textLength="137.696" font-weight="700" font-family="Arial">UploadThing service</text><text x="634.1" y="541.378" fill="#000" font-size="14" textLength="175.8" font-weight="700" font-family="Arial">External HTTPS endpoints</text></g><!--cluster Template--><g class="cluster" data-qualified-name="Template" id="ent0011" data-source-line="20"><polygon points="1316.5,402.148,1326.5,392.148,1598.5,392.148,1598.5,494.148,1588.5,504.148,1316.5,504.148,1316.5,402.148" fill="#F8FAFC" style="stroke:#94A3B8;stroke-width:1;stroke-linejoin:miter;stroke-miterlimit:10;"/><line x1="1588.5" y1="402.148" x2="1598.5" y2="392.148" style="stroke:#94A3B8;stroke-width:1;"/><line x1="1316.5" y1="402.148" x2="1588.5" y2="402.148" style="stroke:#94A3B8;stroke-width:1;"/><line x1="1588.5" y1="402.148" x2="1588.5" y2="504.148" style="stroke:#94A3B8;stroke-width:1;"/><text x="1350.407" y="418.28" fill="#000" font-size="14" textLength="206.186" font-weight="700" font-family="Arial">Optional local template service</text><text x="1395.911" y="434.378" fill="#000" font-size="14" textLength="115.179" font-weight="700" font-family="Arial">json-server :5000</text></g><!--entity Browser--><g class="entity" data-qualified-name="Client.Browser" id="ent0002" data-source-line="6"><rect x="32" y="460.648" width="137.399" height="55.197" fill="#F1F1F1" style="stroke:#181818;stroke-width:0.5;" rx="4" ry="4"/><polygon points="152.399,465.648,152.399,479.648,164.399,479.648,164.399,471.648,158.399,465.648,152.399,465.648" fill="#F1F1F1" style="stroke:#181818;stroke-width:0.5;stroke-linejoin:miter;stroke-miterlimit:10;"/><line x1="158.399" y1="465.648" x2="158.399" y2="471.648" style="stroke:#181818;stroke-width:0.5;"/><line x1="164.399" y1="471.648" x2="158.399" y2="471.648" style="stroke:#181818;stroke-width:0.5;"/><text x="42" y="486.78" fill="#000" font-size="14" textLength="82.469" font-family="Arial">Web browser</text><text x="42" y="502.878" fill="#000" font-size="14" textLength="107.399" font-family="Arial">React application</text></g><!--entity FrontendApp--><g class="entity" data-qualified-name="Frontend.FrontendApp" id="ent0004" data-source-line="9"><rect x="622" y="352.648" width="200.399" height="71.296" fill="#F1F1F1" style="stroke:#181818;stroke-width:0.5;" rx="4" ry="4"/><polygon points="805.399,357.648,805.399,371.648,817.399,371.648,817.399,363.648,811.399,357.648,805.399,357.648" fill="#F1F1F1" style="stroke:#181818;stroke-width:0.5;stroke-linejoin:miter;stroke-miterlimit:10;"/><line x1="811.399" y1="357.648" x2="811.399" y2="363.648" style="stroke:#181818;stroke-width:0.5;"/><line x1="817.399" y1="363.648" x2="811.399" y2="363.648" style="stroke:#181818;stroke-width:0.5;"/><text x="632" y="378.78" fill="#000" font-size="14" textLength="55.262" font-family="Arial">frontend/</text><text x="632" y="394.878" fill="#000" font-size="14" textLength="167.323" font-family="Arial">Pages, API route handlers,</text><text x="632" y="410.977" fill="#000" font-size="14" textLength="170.399" font-family="Arial">Server Actions, middleware</text></g><!--entity BackendApp--><g class="entity" data-qualified-name="Backend.BackendApp" id="ent0006" data-source-line="12"><rect x="1345.5" y="245.648" width="223.744" height="71.296" fill="#F1F1F1" style="stroke:#181818;stroke-width:0.5;" rx="4" ry="4"/><polygon points="1552.244,250.648,1552.244,264.648,1564.244,264.648,1564.244,256.648,1558.244,250.648,1552.244,250.648" fill="#F1F1F1" style="stroke:#181818;stroke-width:0.5;stroke-linejoin:miter;stroke-miterlimit:10;"/><line x1="1558.244" y1="250.648" x2="1558.244" y2="256.648" style="stroke:#181818;stroke-width:0.5;"/><line x1="1564.244" y1="256.648" x2="1558.244" y2="256.648" style="stroke:#181818;stroke-width:0.5;"/><text x="1355.5" y="271.78" fill="#000" font-size="14" textLength="83.269" font-family="Arial">backend JAR</text><text x="1355.5" y="287.878" fill="#000" font-size="14" textLength="193.744" font-family="Arial">Embedded Tomcat / REST API</text><text x="1355.5" y="303.977" fill="#000" font-size="14" textLength="132.275" font-family="Arial">Spring Security / JPA</text></g><!--entity DB--><g class="entity" data-qualified-name="DBHost.DB" id="ent0008" data-source-line="15"><path d="M1996.5,260.648 C1996.5,250.648 2093.272,250.648 2093.272,250.648 C2093.272,250.648 2190.044,250.648 2190.044,260.648 L2190.044,301.845 C2190.044,311.845 2093.272,311.845 2093.272,311.845 C2093.272,311.845 1996.5,311.845 1996.5,301.845 L1996.5,260.648" style="stroke:#181818;stroke-width:0.5;" fill="#F1F1F1"/><path d="M1996.5,260.648 C1996.5,270.648 2093.272,270.648 2093.272,270.648 C2093.272,270.648 2190.044,270.648 2190.044,260.648" style="stroke:#181818;stroke-width:0.5;" fill="none"/><text x="2006.5" y="287.78" fill="#000" font-size="14" textLength="173.544" font-family="Arial">DB_URL-selected database</text><text x="2006.5" y="303.878" fill="#000" font-size="14" textLength="157.979" font-family="Arial">public schema / 21 tables</text></g><!--entity Files--><g class="entity" data-qualified-name="Upload.Files" id="ent0010" data-source-line="18"><rect x="632" y="550.648" width="180.186" height="71.296" fill="#F1F1F1" style="stroke:#181818;stroke-width:0.5;" rx="4" ry="4"/><polygon points="795.186,555.648,795.186,569.648,807.186,569.648,807.186,561.648,801.186,555.648,795.186,555.648" fill="#F1F1F1" style="stroke:#181818;stroke-width:0.5;stroke-linejoin:miter;stroke-miterlimit:10;"/><line x1="801.186" y1="555.648" x2="801.186" y2="561.648" style="stroke:#181818;stroke-width:0.5;"/><line x1="807.186" y1="561.648" x2="801.186" y2="561.648" style="stroke:#181818;stroke-width:0.5;"/><text x="642" y="576.78" fill="#000" font-size="14" textLength="140.068" font-family="Arial">Upload API / callbacks</text><text x="642" y="592.878" fill="#000" font-size="14" textLength="140.854" font-family="Arial">Stored product images</text><text x="642" y="608.977" fill="#000" font-size="14" textLength="150.186" font-family="Arial">Seller document images</text></g><!--entity TemplateData--><g class="entity" data-qualified-name="Template.TemplateData" id="ent0012" data-source-line="21"><rect x="1392.5" y="448.648" width="130.406" height="39.099" fill="#F1F1F1" style="stroke:#181818;stroke-width:0.5;" rx="4" ry="4"/><polygon points="1505.906,453.648,1505.906,467.648,1517.906,467.648,1517.906,459.648,1511.906,453.648,1505.906,453.648" fill="#F1F1F1" style="stroke:#181818;stroke-width:0.5;stroke-linejoin:miter;stroke-miterlimit:10;"/><line x1="1511.906" y1="453.648" x2="1511.906" y2="459.648" style="stroke:#181818;stroke-width:0.5;"/><line x1="1517.906" y1="459.648" x2="1511.906" y2="459.648" style="stroke:#181818;stroke-width:0.5;"/><text x="1402.5" y="474.78" fill="#000" font-size="14" textLength="100.406" font-family="Arial">frontend/db.json</text></g><g class="entity" data-qualified-name="GMN20" id="ent0021" data-source-line="33"><path d="M526,162.148 L526,244.641 A4,4 0 0 0 530,248.641 L914.13,248.641 A4,4 0 0 0 918.13,244.641 L918.13,168.148 L908.13,158.148 L530,158.148 A4,4 0 0 0 526,162.148" style="stroke:#D97706;stroke-width:0.5;" fill="#FFF7ED"/><path d="M908.13,158.148 L908.13,166.148 A2,2 0 0 0 910.13,168.148 L918.13,168.148 L908.13,158.148" style="stroke:#D97706;stroke-width:1;" fill="#FFF7ED"/><text x="532" y="176.28" fill="#7C2D12" font-size="14" textLength="335.405" font-family="Arial">BACKEND_API_URL defaults to http://localhost:8080.</text><text x="532" y="192.378" fill="#7C2D12" font-size="14" textLength="371.13" font-family="Arial">ALLOWED_REQUEST_ORIGINS governs mutation origins.</text><text x="532" y="208.477" fill="#7C2D12" font-size="14" textLength="315.937" font-family="Arial">Browser session is an auth_token HttpOnly cookie;</text><text x="532" y="224.576" fill="#7C2D12" font-size="14" textLength="334.25" font-family="Arial">Secure flag is enabled when NODE_ENV=production.</text><text x="532" y="240.674" fill="#7C2D12" font-size="14" textLength="274.682" font-family="Arial">UploadThing credentials remain server-side.</text></g><g class="entity" data-qualified-name="GMN23" id="ent0024" data-source-line="40"><path d="M1277,55.148 L1277,137.641 A4,4 0 0 0 1281,141.641 L1633.999,141.641 A4,4 0 0 0 1637.999,137.641 L1637.999,61.148 L1627.999,51.148 L1281,51.148 A4,4 0 0 0 1277,55.148" style="stroke:#D97706;stroke-width:0.5;" fill="#FFF7ED"/><path d="M1627.999,51.148 L1627.999,59.148 A2,2 0 0 0 1629.999,61.148 L1637.999,61.148 L1627.999,51.148" style="stroke:#D97706;stroke-width:1;" fill="#FFF7ED"/><text x="1283" y="69.28" fill="#7C2D12" font-size="14" textLength="303.126" font-family="Arial">server.port=${PORT:8080}; database credentials</text><text x="1283" y="85.378" fill="#7C2D12" font-size="14" textLength="339.999" font-family="Arial">use DB_URL, DB_USERNAME and DB_PASSWORD.</text><text x="1283" y="101.477" fill="#7C2D12" font-size="14" textLength="253.613" font-family="Arial">JWT signing secret uses JWT_SECRET.</text><text x="1283" y="117.576" fill="#7C2D12" font-size="14" textLength="325.979" font-family="Arial">CORS uses exact ALLOWED_REQUEST_ORIGINS</text><text x="1283" y="133.674" fill="#7C2D12" font-size="14" textLength="184.447" font-family="Arial">(default http://localhost:3000).</text></g><g class="entity" data-qualified-name="GMN26" id="ent0027" data-source-line="47"><path d="M1908,92.148 L1908,158.542 A4,4 0 0 0 1912,162.542 L2275.219,162.542 A4,4 0 0 0 2279.219,158.542 L2279.219,98.148 L2269.219,88.148 L1912,88.148 A4,4 0 0 0 1908,92.148" style="stroke:#D97706;stroke-width:0.5;" fill="#FFF7ED"/><path d="M2269.219,88.148 L2269.219,96.148 A2,2 0 0 0 2271.219,98.148 L2279.219,98.148 L2269.219,88.148" style="stroke:#D97706;stroke-width:1;" fill="#FFF7ED"/><text x="1914" y="106.28" fill="#7C2D12" font-size="14" textLength="350.219" font-family="Arial">A Supabase-hosted PostgreSQL database is compatible</text><text x="1914" y="122.378" fill="#7C2D12" font-size="14" textLength="245.144" font-family="Arial">with backend/db/supabase-schema.sql.</text><text x="1914" y="138.477" fill="#7C2D12" font-size="14" textLength="347.088" font-family="Arial">Database port/TLS are not hard-coded in the repository.</text><text x="1914" y="154.576" fill="#7C2D12" font-size="14" textLength="343.178" font-family="Arial">The configured login role is not verified by this diagram.</text></g><!--link Browser to FrontendApp--><g class="link" data-entity-1="ent0002" data-entity-2="ent0004" id="lnk13" data-source-line="24" data-link-type="dependency"><path d="M169.08,460.608 C179.64,457.008 190.52,453.688 201,451.148 C344.82,416.218 510.951,400.569 616.541,393.559" style="stroke:#475569;stroke-width:1.2;" fill="none" id="Browser-to-FrontendApp"/><polygon points="621.53,393.228,612.285,389.833,616.541,393.559,612.815,397.815,621.53,393.228" fill="#475569" style="stroke:#475569;stroke-width:1.2;stroke-linejoin:miter;stroke-miterlimit:10;"/><text x="261.531" y="384.28" fill="#000" font-size="14" textLength="174.316" font-family="Arial">HTTP :3000 in development</text><text x="202" y="400.378" fill="#000" font-size="14" textLength="293.378" font-family="Arial">HTTPS at configured public origin in production</text></g><!--link FrontendApp to BackendApp--><g class="link" data-entity-1="ent0004" data-entity-2="ent0006" id="lnk14" data-source-line="25" data-link-type="dependency"><path d="M822.3,373.658 C958.6,353.778 1197.942,318.87 1340.262,298.1" style="stroke:#475569;stroke-width:1.2;" fill="none" id="FrontendApp-to-BackendApp"/><polygon points="1345.21,297.378,1335.727,294.72,1340.262,298.1,1336.882,302.636,1345.21,297.378" fill="#475569" style="stroke:#475569;stroke-width:1.2;stroke-linejoin:miter;stroke-miterlimit:10;"/><text x="1027.962" y="277.28" fill="#000" font-size="14" textLength="140.075" font-family="Arial">HTTP :8080 by default</text><text x="949" y="293.378" fill="#000" font-size="14" textLength="297.999" font-family="Arial">BACKEND_API_URL selects HTTP(S) endpoint</text><text x="1036.158" y="309.477" fill="#000" font-size="14" textLength="123.683" font-family="Arial">JSON / Bearer JWT</text></g><!--link BackendApp to DB--><g class="link" data-entity-1="ent0006" data-entity-2="ent0008" id="lnk15" data-source-line="26" data-link-type="dependency"><path d="M1569.66,281.148 C1690.49,281.148 1876.63,281.148 1991.26,281.148" style="stroke:#475569;stroke-width:1.2;" fill="none" id="BackendApp-to-DB"/><polygon points="1996.26,281.148,1987.26,277.148,1991.26,281.148,1987.26,285.148,1996.26,281.148" fill="#475569" style="stroke:#475569;stroke-width:1.2;stroke-linejoin:miter;stroke-miterlimit:10;"/><text x="1683.4" y="261.28" fill="#000" font-size="14" textLength="179.724" font-family="Arial">JDBC PostgreSQL over TCP</text><text x="1669" y="277.378" fill="#000" font-size="14" textLength="208.523" font-family="Arial">Host, port and TLS from DB_URL</text></g><!--link FrontendApp to Files--><g class="link" data-entity-1="ent0004" data-entity-2="ent0010" id="lnk16" data-source-line="27" data-link-type="dependency"><path d="M621.92,387.318 C470.23,389.408 208.96,408.148 300.5,516.148 C380.12,610.078 528.738,612.161 626.888,601.641" style="stroke:#475569;stroke-width:1.2;" fill="none" id="FrontendApp-to-Files"/><polygon points="631.86,601.108,622.485,598.09,626.888,601.641,623.338,606.044,631.86,601.108" fill="#475569" style="stroke:#475569;stroke-width:1.2;stroke-linejoin:miter;stroke-miterlimit:10;"/><text x="310.327" y="496.28" fill="#000" font-size="14" textLength="77.027" font-family="Arial">HTTPS :443</text><text x="239.5" y="512.378" fill="#000" font-size="14" textLength="218.682" font-family="Arial">UploadThing SDK control / deletion</text></g><!--link Files to FrontendApp--><g class="link" data-entity-1="ent0010" data-entity-2="ent0004" id="lnk18" data-source-line="29" data-link-type="dependency"><path d="M631.88,587.868 C478.11,587.828 190.61,573.158 287.5,459.148 C367.69,364.798 515.405,360.925 616.735,371.165" style="stroke:#475569;stroke-width:1.2;" fill="none" id="Files-to-FrontendApp"/><polygon points="621.71,371.668,613.158,366.783,616.735,371.165,612.353,374.743,621.71,371.668" fill="#475569" style="stroke:#475569;stroke-width:1.2;stroke-linejoin:miter;stroke-miterlimit:10;"/><text x="226.5" y="473.28" fill="#000" font-size="14" textLength="244.337" font-family="Arial">HTTPS callback to configured app URL</text></g><!--link Browser to Files--><g class="link" data-entity-1="ent0002" data-entity-2="ent0010" id="lnk17" data-source-line="28" data-link-type="dependency"><path d="M131.23,515.798 C149.8,531.248 175.06,549.158 201,558.148 C345.38,608.158 520.766,604.732 626.686,596.362" style="stroke:#475569;stroke-width:1.2;" fill="none" id="Browser-to-Files"/><polygon points="631.67,595.968,622.383,592.689,626.686,596.362,623.013,600.665,631.67,595.968" fill="#475569" style="stroke:#475569;stroke-width:1.2;stroke-linejoin:miter;stroke-miterlimit:10;"/><text x="310.134" y="538.28" fill="#000" font-size="14" textLength="77.027" font-family="Arial">HTTPS :443</text><text x="275.5" y="554.378" fill="#000" font-size="14" textLength="146.296" font-family="Arial">Upload / image delivery</text></g><!--link FrontendApp to TemplateData--><g class="link" data-entity-1="ent0004" data-entity-2="ent0012" id="lnk19" data-source-line="30" data-link-type="dependency"><path d="M822.11,399.798 C861.31,404.358 906.77,409.578 948,414.148 C1107.71,431.858 1290.807,451.002 1387.287,461.002" style="stroke:#475569;stroke-width:1.2;stroke-dasharray:7,7;" fill="none" id="FrontendApp-to-TemplateData"/><polygon points="1392.26,461.518,1383.72,456.611,1387.287,461.002,1382.896,464.569,1392.26,461.518" fill="#475569" style="stroke:#475569;stroke-width:1.2;stroke-linejoin:miter;stroke-miterlimit:10;"/><text x="1059.958" y="394.28" fill="#000" font-size="14" textLength="75.476" font-family="Arial">HTTP :5000</text><text x="1030" y="410.378" fill="#000" font-size="14" textLength="135.393" font-family="Arial">getProducts() fallback</text></g><!--link Frontend to GMN20--><g class="link" data-entity-1="ent0003" data-entity-2="ent0021" id="lnk22" data-source-line="33" data-link-type="association"><path d="M693.001,467.338 C687.634,468.702 681.629,470.156 675.075,471.636 C648.86,477.555 613.876,483.878 575.941,486.413 C500.073,491.483 412.405,481.403 359.5,422.648 C289.22,344.598 410.04,285.338 530.68,248.188" style="stroke:#475569;stroke-width:1.2;stroke-dasharray:7,7;" fill="none" id="Frontend-GMN20"/></g><!--link Backend to GMN23--><g class="link" data-entity-1="ent0005" data-entity-2="ent0024" id="lnk25" data-source-line="40" data-link-type="association"><path d="M1428.721,360.234 C1423.396,361.58 1417.436,363.016 1410.932,364.476 C1384.916,370.315 1350.193,376.547 1312.534,379.023 C1237.215,383.975 1150.15,373.908 1097.5,315.648 C1025.6,236.088 1153.88,175.698 1276.79,138.598" style="stroke:#475569;stroke-width:1.2;stroke-dasharray:7,7;" fill="none" id="Backend-GMN23"/></g><!--link DBHost to GMN26--><g class="link" data-entity-1="ent0007" data-entity-2="ent0027" id="lnk28" data-source-line="47" data-link-type="association"><path d="M2062.501,355.286 C2061.223,355.581 2059.912,355.879 2058.569,356.179 C2055.883,356.779 2053.069,357.389 2050.138,358.002 C2026.689,362.903 1995.72,367.969 1962.303,369.648 C1895.468,373.005 1818.84,362.813 1773,310.648 C1712.9,242.248 1817.39,192.758 1922.75,162.188" style="stroke:#475569;stroke-width:1.2;stroke-dasharray:7,7;" fill="none" id="DBHost-GMN26"/></g><g class="legend" data-source-line="52"><rect x="858.438" y="663.19" width="570.342" height="90.493" fill="none" style="stroke:#000;stroke-width:1;" rx="4" ry="4"/><text x="863.438" y="681.322" fill="#000" font-size="14" textLength="560.342" font-family="Arial">Supported topology inferred from code/configuration, not a verified production deployment.</text><text x="863.438" y="697.42" fill="#000" font-size="14" textLength="474.708" font-family="Arial">Nodes may share one development machine; no actual hostnames, replicas,</text><text x="863.438" y="713.519" fill="#000" font-size="14" textLength="540.039" font-family="Arial">reverse proxy, container platform, payment gateway or courier integration are asserted.</text><text x="863.438" y="729.617" fill="#000" font-size="14" textLength="492.57" font-family="Arial">Sources: backend/src/main/resources/application.properties, backend/pom.xml,</text><text x="863.438" y="745.716" fill="#000" font-size="14" textLength="488.776" font-family="Arial">frontend/package.json, frontend route handlers and UploadThing configuration.</text></g><?plantuml-src TLRRRXit47tNLqoDFYI0BcwJ0e631D2jJHnNKhHA_I90e7Qf5PDTSajoRGj1_hrdk1Uld1emu1KvbyCvPuRyHUauAnD9E-TFcHmMPPxrlFAPf9NGYOYyiP86D3NweDBI2g-C7aHbKHZhPK8pMMJcb4ljQMCAavdqrClamPCtP5Lwz9GeAsFswlMqGQABQQROF95tAfON91pLAzzxHC9wTH2nfujRkQUzDVTEsgrUIruJHP6fE408VfDgk_UZZlodDTfBdP0jjLUvtEe5reTV7Ore8HyylhPw9kzaPee0-UhLvULb2DMwdeCurCkZhLw9LBe-ZLSVoPhIIpgYFfcqhh_LaRHtqj8ud1D6kKgmTI-iF0i-BeeMwqJ4tywWNeixGR__1gXHOPLEQMACHzhbUeDQ7KIP0U-RopSLtiRz7Ew-NhqUhxTwdkzbae2ZZSbHD0HUpwCD7m20gnIHZ4kh_0bxrwjnDt0NQiCzGgsCywcLqUSRWb5XbFPy-kmmE6871iOIn27smabAX0yV8UviyW4M0M-pJXUpoUxB-cRWP0Q9mBlPsUgYt8DgSl5HvWBmK1XiPTBLmG0kpaoPqCKN250acoEV1s9WKU7i3rvQBJBwiDcieXPhvLrvF2bTlSZqZYWMMSQrX5n20oHKM9EKi5Cvoo2S6TnJOk8oAAbQhzXMWDaMRrcm9e0aCuXANkP59g2U5kfNXuPobO2k_cZqk6didj5ZiX-ouvdj3DL3tbxT5ZGOlEzAZwv2DIhHazBSWKqdR7LLACWaVcIx9i6WaM6ElxeAtCpTm9peKJTj7XOhxK-DUhTwCfv-cYzcEnIPUQUATnVCNqGlEvAwZfOBy32HQ25BrxURNYS-fvjDaEPwDfbs9McuXflf2gV1OfzuHX6wb3Ot4Q5qELM2-mbyeAp67T7LwzUljhghgsZsYUlYhSc0AW7iK8EpGZyR0Xv17UodWF3Kgsp_dvwe5H-Fq0uP67xq5Fjm-FwC_RRqhAEjJgLVLOov5o_fKCVbEGnXxOttg8Wvj22WjASCrTGvndBqlhWQZOAEkTi3lqCuZMzkbhVpsMuz__m54sQtN7_yw-CYefJvq8xoqeUPNGl9iKzJEYUTuotbG1I9qXztte1e-e1iIvsTK0BpJScty0dJIj8X4odRIyq38Q7x8ymNozbyDr_yy-vHefocIsACAaBgIcIEBAOAz5ortS0ft18z7fnScQVbgPM7Q9Nva6NrxjVlF9b33NwyVHnfdIHmAB5IIQuV_aVpzMByzpne4hzNuoYwNQvdZ1GQ9wTINOqnXF7ixNXz5ysdw_c6hQRBTLIjomSU2C-K7fOlcZlZ9zgu_Ly-VzngK3EjxIHlXdkdrTe3WuZOv0K81XdmkbV-IFKzX2arSasCQfGFtRyP7sJM-7CnHzoVw7J6WslL9eFOyCK5XlnHWgp2E8KvV6BF3LOwRO4N1ypGc04A1m15wg2mXT7ZZrXCb4Yjo3j7pcJAtzMXMLdjUyRNZnZaFaZB2SBSO3oZkFi6weTSuZ7Re_3GDSsZY07p6mHD84xaZdn8esLtz68dXZxbMmGaS5hYbk1wQv7pUmE7vpUFwoEIXPVbcbdpSEg7YGGLeuju01oCpJ7oHFKOIp4Hxf4Izt5iSCV328DLfXNuK6pXe6UScJ56i8cbksgPSpOUSOkCh7JLtgZp-Xe2GG5dnGWRbyBamuSyOw3jDLLW3wClt5NzTld90ogqmrcdTWiTQAi8-my0?></g></svg>