<svg xmlns="http://www.w3.org/2000/svg" xmlns:xlink="http://www.w3.org/1999/xlink" version="1.1" data-diagram-type="SEQUENCE" style="width:2413px;height:1817px;background:#FFFFFF;" width="2413px" height="1817px" viewBox="0 0 2413 1817" zoomAndPan="magnify" preserveAspectRatio="none" contentStyleType="text/css"><?plantuml 1.2026.8?><defs/><g font-family="sans-serif" lengthAdjust="spacing"><g class="title" data-source-line="2"><text x="982.426" y="34.698" fill="#0F172A" font-size="21" textLength="446.937" font-weight="700" font-family="Arial">Multi-Seller Checkout and Stock Reservation</text></g><rect x="27.341" y="293.74" width="2177.804" height="268.986" fill="#F8FAFC" style="stroke:#F8FAFC;stroke-width:1;" rx="4" ry="4"/><rect x="27.341" y="293.74" width="2177.804" height="268.986" fill="none" style="stroke:#94A3B8;stroke-width:1.5;" rx="4" ry="4"/><rect x="27.341" y="942.008" width="2337.482" height="680.367" fill="#F8FAFC" style="stroke:#F8FAFC;stroke-width:1;" rx="4" ry="4"/><rect x="27.341" y="942.008" width="2337.482" height="680.367" fill="none" style="stroke:#94A3B8;stroke-width:1.5;" rx="4" ry="4"/><rect x="1817.512" y="1206.995" width="387.633" height="148.592" fill="#F8FAFC" style="stroke:#F8FAFC;stroke-width:1;" rx="4" ry="4"/><rect x="1817.512" y="1206.995" width="387.633" height="148.592" fill="none" style="stroke:#94A3B8;stroke-width:1.5;" rx="4" ry="4"/><g><title>Customer</title><rect x="39.841" y="131.247" width="8" height="1599.523" fill="#000" fill-opacity="0"/><line x1="43.341" y1="131.247" x2="43.341" y2="1730.77" style="stroke:#94A3B8;stroke-width:0.5;stroke-dasharray:5,5;"/></g><g><title>Next.js</title><rect x="465.542" y="131.247" width="8" height="1599.523" fill="#000" fill-opacity="0"/><line x1="469.042" y1="131.247" x2="469.042" y2="1730.77" style="stroke:#94A3B8;stroke-width:0.5;stroke-dasharray:5,5;"/></g><g><title>CustomerCheckoutController .</title><rect x="835.948" y="131.247" width="8" height="1599.523" fill="#000" fill-opacity="0"/><line x1="839.448" y1="131.247" x2="839.448" y2="1730.77" style="stroke:#94A3B8;stroke-width:0.5;stroke-dasharray:5,5;"/></g><g><title>OrderOrchestrationServiceImp</title><rect x="1204.939" y="131.247" width="8" height="1599.523" fill="#000" fill-opacity="0"/><line x1="1208.439" y1="131.247" x2="1208.439" y2="1730.77" style="stroke:#94A3B8;stroke-width:0.5;stroke-dasharray:5,5;"/></g><g><title>InventoryServiceImp</title><rect x="1533.434" y="131.247" width="8" height="1599.523" fill="#000" fill-opacity="0"/><line x1="1536.934" y1="131.247" x2="1536.934" y2="1730.77" style="stroke:#94A3B8;stroke-width:0.5;stroke-dasharray:5,5;"/></g><g><title>OrderDraftFactoryImp</title><rect x="1830.012" y="131.247" width="8" height="1599.523" fill="#000" fill-opacity="0"/><line x1="1833.512" y1="131.247" x2="1833.512" y2="1730.77" style="stroke:#94A3B8;stroke-width:0.5;stroke-dasharray:5,5;"/></g><g><title>ShippingFeeCalculator .</title><rect x="2185.645" y="131.247" width="8" height="1599.523" fill="#000" fill-opacity="0"/><line x1="2189.145" y1="131.247" x2="2189.145" y2="1730.77" style="stroke:#94A3B8;stroke-width:0.5;stroke-dasharray:5,5;"/></g><g><title>JPA repositories</title><rect x="2345.324" y="131.247" width="8" height="1599.523" fill="#000" fill-opacity="0"/><line x1="2348.824" y1="131.247" x2="2348.824" y2="1730.77" style="stroke:#94A3B8;stroke-width:0.5;stroke-dasharray:5,5;"/></g><text x="10" y="128.28" fill="#000" font-size="14" textLength="60.683" font-family="Arial">Customer</text><ellipse cx="43.341" cy="63.648" rx="8" ry="8" fill="#FFF" style="stroke:#334155;stroke-width:0.5;"/><path d="M43.341,71.648 L43.341,98.648 M30.341,79.648 L56.341,79.648 M43.341,98.648 L30.341,113.648 M43.341,98.648 L56.341,113.648" style="stroke:#334155;stroke-width:0.5;" fill="none"/><rect x="414.963" y="84.049" width="108.158" height="46.197" fill="#F0FDF4" style="stroke:#15803D;stroke-width:0.5;" rx="4" ry="4"/><text x="447.649" y="104.181" fill="#000" font-size="14" textLength="42.786" font-family="Arial">Next.js</text><text x="421.963" y="120.28" fill="#000" font-size="14" textLength="94.158" font-family="Arial">checkout proxy</text><rect x="738.3" y="84.049" width="202.296" height="46.197" fill="#F0FDF4" style="stroke:#15803D;stroke-width:0.5;" rx="4" ry="4"/><text x="745.3" y="104.181" fill="#000" font-size="14" textLength="188.296" font-family="Arial">CustomerCheckoutController /</text><text x="756.193" y="120.28" fill="#000" font-size="14" textLength="166.51" font-family="Arial">CustomerCheckoutService</text><rect x="1106.519" y="100.148" width="203.841" height="30.099" fill="#F0FDF4" style="stroke:#15803D;stroke-width:0.5;" rx="4" ry="4"/><text x="1113.519" y="120.28" fill="#000" font-size="14" textLength="189.841" font-family="Arial">OrderOrchestrationServiceImp</text><rect x="1466.131" y="100.148" width="141.606" height="30.099" fill="#F0FDF4" style="stroke:#15803D;stroke-width:0.5;" rx="4" ry="4"/><text x="1473.131" y="120.28" fill="#000" font-size="14" textLength="127.606" font-family="Arial">InventoryServiceImp</text><rect x="1758.443" y="100.148" width="150.138" height="30.099" fill="#F0FDF4" style="stroke:#15803D;stroke-width:0.5;" rx="4" ry="4"/><text x="1765.443" y="120.28" fill="#000" font-size="14" textLength="136.138" font-family="Arial">OrderDraftFactoryImp</text><rect x="2093.432" y="84.049" width="191.427" height="46.197" fill="#F0FDF4" style="stroke:#15803D;stroke-width:0.5;" rx="4" ry="4"/><text x="2114.435" y="104.181" fill="#000" font-size="14" textLength="149.42" font-family="Arial">ShippingFeeCalculator /</text><text x="2100.432" y="120.28" fill="#000" font-size="14" textLength="177.427" font-family="Arial">ShippingFeeStrategyFactory</text><text x="2294.858" y="128.28" fill="#000" font-size="14" textLength="101.931" font-family="Arial">JPA repositories</text><path d="M2330.824,79.148 C2330.824,69.148 2348.824,69.148 2348.824,69.148 C2348.824,69.148 2366.824,69.148 2366.824,79.148 L2366.824,105.148 C2366.824,115.148 2348.824,115.148 2348.824,115.148 C2348.824,115.148 2330.824,115.148 2330.824,105.148 L2330.824,79.148" style="stroke:#181818;stroke-width:0.5;" fill="#E2E2F0"/><path d="M2330.824,79.148 C2330.824,89.148 2348.824,89.148 2348.824,89.148 C2348.824,89.148 2366.824,89.148 2366.824,79.148" style="stroke:#181818;stroke-width:0.5;" fill="none"/><text x="10" y="1743.902" fill="#000" font-size="14" textLength="60.683" font-family="Arial">Customer</text><ellipse cx="43.341" cy="1755.369" rx="8" ry="8" fill="#FFF" style="stroke:#334155;stroke-width:0.5;"/><path d="M43.341,1763.369 L43.341,1790.369 M30.341,1771.369 L56.341,1771.369 M43.341,1790.369 L30.341,1805.369 M43.341,1790.369 L56.341,1805.369" style="stroke:#334155;stroke-width:0.5;" fill="none"/><rect x="414.963" y="1730.77" width="108.158" height="46.197" fill="#F0FDF4" style="stroke:#15803D;stroke-width:0.5;" rx="4" ry="4"/><text x="447.649" y="1750.902" fill="#000" font-size="14" textLength="42.786" font-family="Arial">Next.js</text><text x="421.963" y="1767" fill="#000" font-size="14" textLength="94.158" font-family="Arial">checkout proxy</text><rect x="738.3" y="1730.77" width="202.296" height="46.197" fill="#F0FDF4" style="stroke:#15803D;stroke-width:0.5;" rx="4" ry="4"/><text x="745.3" y="1750.902" fill="#000" font-size="14" textLength="188.296" font-family="Arial">CustomerCheckoutController /</text><text x="756.193" y="1767" fill="#000" font-size="14" textLength="166.51" font-family="Arial">CustomerCheckoutService</text><rect x="1106.519" y="1730.77" width="203.841" height="30.099" fill="#F0FDF4" style="stroke:#15803D;stroke-width:0.5;" rx="4" ry="4"/><text x="1113.519" y="1750.902" fill="#000" font-size="14" textLength="189.841" font-family="Arial">OrderOrchestrationServiceImp</text><rect x="1466.131" y="1730.77" width="141.606" height="30.099" fill="#F0FDF4" style="stroke:#15803D;stroke-width:0.5;" rx="4" ry="4"/><text x="1473.131" y="1750.902" fill="#000" font-size="14" textLength="127.606" font-family="Arial">InventoryServiceImp</text><rect x="1758.443" y="1730.77" width="150.138" height="30.099" fill="#F0FDF4" style="stroke:#15803D;stroke-width:0.5;" rx="4" ry="4"/><text x="1765.443" y="1750.902" fill="#000" font-size="14" textLength="136.138" font-family="Arial">OrderDraftFactoryImp</text><rect x="2093.432" y="1730.77" width="191.427" height="46.197" fill="#F0FDF4" style="stroke:#15803D;stroke-width:0.5;" rx="4" ry="4"/><text x="2114.435" y="1750.902" fill="#000" font-size="14" textLength="149.42" font-family="Arial">ShippingFeeCalculator /</text><text x="2100.432" y="1767" fill="#000" font-size="14" textLength="177.427" font-family="Arial">ShippingFeeStrategyFactory</text><text x="2294.858" y="1743.902" fill="#000" font-size="14" textLength="101.931" font-family="Arial">JPA repositories</text><path d="M2330.824,1756.869 C2330.824,1746.869 2348.824,1746.869 2348.824,1746.869 C2348.824,1746.869 2366.824,1746.869 2366.824,1756.869 L2366.824,1782.869 C2366.824,1792.869 2348.824,1792.869 2348.824,1792.869 C2348.824,1792.869 2330.824,1792.869 2330.824,1782.869 L2330.824,1756.869" style="stroke:#181818;stroke-width:0.5;" fill="#E2E2F0"/><path d="M2330.824,1756.869 C2330.824,1766.869 2348.824,1766.869 2348.824,1766.869 C2348.824,1766.869 2366.824,1766.869 2366.824,1756.869" style="stroke:#181818;stroke-width:0.5;" fill="none"/><polygon points="457.042,157.345,467.042,161.345,457.042,165.345,461.042,161.345" fill="#475569" style="stroke:#475569;stroke-width:1;stroke-linejoin:miter;stroke-miterlimit:10;"/><line x1="43.341" y1="161.345" x2="463.042" y2="161.345" style="stroke:#475569;stroke-width:1.2;"/><text x="50.341" y="156.378" fill="#000" font-size="14" font-weight="700" font-family="Arial">1</text><text x="62.127" y="156.378" fill="#000" font-size="14" textLength="115.165" font-family="Arial">GET /api/checkout</text><polygon points="827.448,187.444,837.448,191.444,827.448,195.444,831.448,191.444" fill="#475569" style="stroke:#475569;stroke-width:1;stroke-linejoin:miter;stroke-miterlimit:10;"/><line x1="469.042" y1="191.444" x2="833.448" y2="191.444" style="stroke:#475569;stroke-width:1.2;"/><text x="476.042" y="186.477" fill="#000" font-size="14" font-weight="700" font-family="Arial">2</text><text x="487.829" y="186.477" fill="#000" font-size="14" textLength="213.199" font-family="Arial">Bearer token; requireCustomerId()</text><polygon points="2336.824,217.542,2346.824,221.542,2336.824,225.542,2340.824,221.542" fill="#475569" style="stroke:#475569;stroke-width:1;stroke-linejoin:miter;stroke-miterlimit:10;"/><line x1="839.448" y1="221.542" x2="2342.824" y2="221.542" style="stroke:#475569;stroke-width:1.2;"/><text x="846.448" y="216.576" fill="#000" font-size="14" font-weight="700" font-family="Arial">3</text><text x="858.234" y="216.576" fill="#000" font-size="14" textLength="272.385" font-family="Arial">read cart, owned addresses, address usage</text><polygon points="480.042,247.641,470.042,251.641,480.042,255.641,476.042,251.641" fill="#475569" style="stroke:#475569;stroke-width:1;stroke-linejoin:miter;stroke-miterlimit:10;"/><line x1="474.042" y1="251.641" x2="838.448" y2="251.641" style="stroke:#475569;stroke-width:1.2;stroke-dasharray:2,2;"/><text x="486.042" y="246.674" fill="#000" font-size="14" font-weight="700" font-family="Arial">4</text><text x="497.829" y="246.674" fill="#000" font-size="14" textLength="334.619" font-family="Arial">items, addresses, shippingMethods, paymentMethods</text><polygon points="54.341,277.74,44.341,281.74,54.341,285.74,50.341,281.74" fill="#475569" style="stroke:#475569;stroke-width:1;stroke-linejoin:miter;stroke-miterlimit:10;"/><line x1="48.341" y1="281.74" x2="468.042" y2="281.74" style="stroke:#475569;stroke-width:1.2;stroke-dasharray:2,2;"/><text x="60.341" y="276.773" fill="#000" font-size="14" font-weight="700" font-family="Arial">5</text><text x="72.127" y="276.773" fill="#000" font-size="14" textLength="108.172" font-family="Arial">Checkout context</text><path d="M31.341,293.74 L101.886,293.74 L101.886,301.838 L91.886,311.838 L27.341,311.838 L27.341,297.74 A4,4 0 0 1 31.341,293.74" style="stroke:#000;stroke-width:1.5;" fill="#F8FAFC"/><rect x="27.341" y="293.74" width="2177.804" height="268.986" fill="none" style="stroke:#94A3B8;stroke-width:1.5;" rx="4" ry="4"/><text x="42.341" y="307.872" fill="#000" font-size="14" textLength="29.545" font-weight="700" font-family="Arial">loop</text><text x="116.886" y="308.872" fill="#000" font-size="14" textLength="447.303" font-weight="700" font-family="Arial">[Each shop and available shipping method (UI requests in parallel)]</text><polygon points="457.042,357.134,467.042,361.134,457.042,365.134,461.042,361.134" fill="#475569" style="stroke:#475569;stroke-width:1;stroke-linejoin:miter;stroke-miterlimit:10;"/><line x1="43.341" y1="361.134" x2="463.042" y2="361.134" style="stroke:#475569;stroke-width:1.2;"/><text x="50.341" y="348.118" fill="#000" font-size="14" font-weight="700" font-family="Arial">6</text><text x="62.127" y="340.069" fill="#000" font-size="14" textLength="163.427" font-family="Arial">POST /api/checkout/quote</text><text x="62.127" y="356.167" fill="#000" font-size="14" textLength="230.371" font-family="Arial">{sellerId, shippingMethod, addressId}</text><polygon points="827.448,387.233,837.448,391.233,827.448,395.233,831.448,391.233" fill="#475569" style="stroke:#475569;stroke-width:1;stroke-linejoin:miter;stroke-miterlimit:10;"/><line x1="469.042" y1="391.233" x2="833.448" y2="391.233" style="stroke:#475569;stroke-width:1.2;"/><text x="476.042" y="386.266" fill="#000" font-size="14" font-weight="700" font-family="Arial">7</text><text x="487.829" y="386.266" fill="#000" font-size="14" textLength="218.661" font-family="Arial">quote(sessionCustomerId, request)</text><line x1="839.448" y1="421.332" x2="881.448" y2="421.332" style="stroke:#475569;stroke-width:1.2;"/><line x1="881.448" y1="421.332" x2="881.448" y2="434.332" style="stroke:#475569;stroke-width:1.2;"/><line x1="840.448" y1="434.332" x2="881.448" y2="434.332" style="stroke:#475569;stroke-width:1.2;"/><polygon points="850.448,430.332,840.448,434.332,850.448,438.332,846.448,434.332" fill="#475569" style="stroke:#475569;stroke-width:1;stroke-linejoin:miter;stroke-miterlimit:10;"/><text x="846.448" y="416.365" fill="#000" font-size="14" font-weight="700" font-family="Arial">8</text><text x="858.234" y="416.365" fill="#000" font-size="14" textLength="343.205" font-family="Arial">require owned address; shop in cart; supported method</text><polygon points="2177.145,460.43,2187.145,464.43,2177.145,468.43,2181.145,464.43" fill="#475569" style="stroke:#475569;stroke-width:1;stroke-linejoin:miter;stroke-miterlimit:10;"/><line x1="839.448" y1="464.43" x2="2183.145" y2="464.43" style="stroke:#475569;stroke-width:1.2;"/><text x="846.448" y="459.463" fill="#000" font-size="14" font-weight="700" font-family="Arial">9</text><text x="858.234" y="459.463" fill="#000" font-size="14" textLength="312.061" font-family="Arial">calculateShippingFee(sellerId, method, addressId)</text><polygon points="850.448,490.529,840.448,494.529,850.448,498.529,846.448,494.529" fill="#475569" style="stroke:#475569;stroke-width:1;stroke-linejoin:miter;stroke-miterlimit:10;"/><line x1="844.448" y1="494.529" x2="2188.145" y2="494.529" style="stroke:#475569;stroke-width:1.2;stroke-dasharray:2,2;"/><text x="856.448" y="489.562" fill="#000" font-size="14" textLength="15.572" font-weight="700" font-family="Arial">10</text><text x="876.02" y="489.562" fill="#000" font-size="14" textLength="86.393" font-family="Arial">calculated fee</text><polygon points="480.042,520.627,470.042,524.627,480.042,528.627,476.042,524.627" fill="#475569" style="stroke:#475569;stroke-width:1;stroke-linejoin:miter;stroke-miterlimit:10;"/><line x1="474.042" y1="524.627" x2="838.448" y2="524.627" style="stroke:#475569;stroke-width:1.2;stroke-dasharray:2,2;"/><text x="486.042" y="519.661" fill="#000" font-size="14" textLength="15.572" font-weight="700" font-family="Arial">11</text><text x="505.615" y="519.661" fill="#000" font-size="14" textLength="141.654" font-family="Arial">ShippingFeeResponse</text><polygon points="54.341,550.726,44.341,554.726,54.341,558.726,50.341,554.726" fill="#475569" style="stroke:#475569;stroke-width:1;stroke-linejoin:miter;stroke-miterlimit:10;"/><line x1="48.341" y1="554.726" x2="468.042" y2="554.726" style="stroke:#475569;stroke-width:1.2;stroke-dasharray:2,2;"/><text x="60.341" y="549.759" fill="#000" font-size="14" textLength="15.572" font-weight="700" font-family="Arial">12</text><text x="79.914" y="549.759" fill="#000" font-size="14" textLength="91.075" font-family="Arial">shipping quote</text><polygon points="457.042,610.923,467.042,614.923,457.042,618.923,461.042,614.923" fill="#475569" style="stroke:#475569;stroke-width:1;stroke-linejoin:miter;stroke-miterlimit:10;"/><line x1="43.341" y1="614.923" x2="463.042" y2="614.923" style="stroke:#475569;stroke-width:1.2;"/><text x="50.341" y="601.907" fill="#000" font-size="14" textLength="15.572" font-weight="700" font-family="Arial">13</text><text x="69.914" y="593.858" fill="#000" font-size="14" textLength="168.075" font-family="Arial">POST /api/checkout/orders</text><text x="69.914" y="609.957" fill="#000" font-size="14" textLength="382.129" font-family="Arial">{shippingAddressId, sellerShippingMethods, paymentMethod}</text><polygon points="827.448,641.022,837.448,645.022,827.448,649.022,831.448,645.022" fill="#475569" style="stroke:#475569;stroke-width:1;stroke-linejoin:miter;stroke-miterlimit:10;"/><line x1="469.042" y1="645.022" x2="833.448" y2="645.022" style="stroke:#475569;stroke-width:1.2;"/><text x="476.042" y="640.055" fill="#000" font-size="14" textLength="15.572" font-weight="700" font-family="Arial">14</text><text x="495.615" y="640.055" fill="#000" font-size="14" textLength="260.887" font-family="Arial">@Valid request; session customer identity</text><line x1="839.448" y1="691.219" x2="881.448" y2="691.219" style="stroke:#475569;stroke-width:1.2;"/><line x1="881.448" y1="691.219" x2="881.448" y2="704.219" style="stroke:#475569;stroke-width:1.2;"/><line x1="840.448" y1="704.219" x2="881.448" y2="704.219" style="stroke:#475569;stroke-width:1.2;"/><polygon points="850.448,700.219,840.448,704.219,850.448,708.219,846.448,704.219" fill="#475569" style="stroke:#475569;stroke-width:1;stroke-linejoin:miter;stroke-miterlimit:10;"/><text x="846.448" y="678.203" fill="#000" font-size="14" textLength="15.572" font-weight="700" font-family="Arial">15</text><text x="866.02" y="670.154" fill="#000" font-size="14" textLength="262.268" font-family="Arial">require owned address and nonempty cart</text><text x="866.02" y="686.252" fill="#000" font-size="14" textLength="323.729" font-family="Arial">require exactly one supported method per cart seller</text><polygon points="2336.824,746.417,2346.824,750.417,2336.824,754.417,2340.824,750.417" fill="#475569" style="stroke:#475569;stroke-width:1;stroke-linejoin:miter;stroke-miterlimit:10;"/><line x1="839.448" y1="750.417" x2="2342.824" y2="750.417" style="stroke:#475569;stroke-width:1.2;"/><text x="846.448" y="737.4" fill="#000" font-size="14" textLength="15.572" font-weight="700" font-family="Arial">16</text><text x="866.02" y="729.351" fill="#000" font-size="14" textLength="132.262" font-family="Arial">select every cart item</text><text x="866.02" y="745.45" fill="#000" font-size="14" textLength="216.303" font-family="Arial">CartService validates current stock</text><polygon points="1196.439,776.515,1206.439,780.515,1196.439,784.515,1200.439,780.515" fill="#475569" style="stroke:#475569;stroke-width:1;stroke-linejoin:miter;stroke-miterlimit:10;"/><line x1="839.448" y1="780.515" x2="1202.439" y2="780.515" style="stroke:#475569;stroke-width:1.2;"/><text x="846.448" y="775.548" fill="#000" font-size="14" textLength="15.572" font-weight="700" font-family="Arial">17</text><text x="866.02" y="775.548" fill="#000" font-size="14" textLength="193.71" font-family="Arial">createOrderGroupFromCart(...)</text><polygon points="2336.824,822.712,2346.824,826.712,2336.824,830.712,2340.824,826.712" fill="#475569" style="stroke:#475569;stroke-width:1;stroke-linejoin:miter;stroke-miterlimit:10;"/><line x1="1208.439" y1="826.712" x2="2342.824" y2="826.712" style="stroke:#475569;stroke-width:1.2;"/><text x="1215.439" y="813.696" fill="#000" font-size="14" textLength="15.572" font-weight="700" font-family="Arial">18</text><text x="1235.011" y="805.647" fill="#000" font-size="14" textLength="255.985" font-family="Arial">findByCustomerIdForUpdate(customerId)</text><text x="1235.011" y="821.746" fill="#000" font-size="14" textLength="214.006" font-family="Arial">load and verify Address ownership</text><line x1="1208.439" y1="856.811" x2="1250.439" y2="856.811" style="stroke:#475569;stroke-width:1.2;"/><line x1="1250.439" y1="856.811" x2="1250.439" y2="869.811" style="stroke:#475569;stroke-width:1.2;"/><line x1="1209.439" y1="869.811" x2="1250.439" y2="869.811" style="stroke:#475569;stroke-width:1.2;"/><polygon points="1219.439,865.811,1209.439,869.811,1219.439,873.811,1215.439,869.811" fill="#475569" style="stroke:#475569;stroke-width:1;stroke-linejoin:miter;stroke-miterlimit:10;"/><text x="1215.439" y="851.844" fill="#000" font-size="14" textLength="15.572" font-weight="700" font-family="Arial">19</text><text x="1235.011" y="851.844" fill="#000" font-size="14" textLength="294.923" font-family="Arial">collect selected items; merge product quantities</text><polygon points="1524.934,895.91,1534.934,899.91,1524.934,903.91,1528.934,899.91" fill="#475569" style="stroke:#475569;stroke-width:1;stroke-linejoin:miter;stroke-miterlimit:10;"/><line x1="1208.439" y1="899.91" x2="1530.934" y2="899.91" style="stroke:#475569;stroke-width:1.2;"/><text x="1215.439" y="894.943" fill="#000" font-size="14" textLength="15.572" font-weight="700" font-family="Arial">20</text><text x="1235.011" y="894.943" fill="#000" font-size="14" textLength="115.938" font-family="Arial">reserve(quantities)</text><polygon points="2336.824,926.008,2346.824,930.008,2336.824,934.008,2340.824,930.008" fill="#475569" style="stroke:#475569;stroke-width:1;stroke-linejoin:miter;stroke-miterlimit:10;"/><line x1="1536.934" y1="930.008" x2="2342.824" y2="930.008" style="stroke:#475569;stroke-width:1.2;"/><text x="1543.934" y="925.042" fill="#000" font-size="14" textLength="15.572" font-weight="700" font-family="Arial">21</text><text x="1563.506" y="925.042" fill="#000" font-size="14" textLength="219.447" font-family="Arial">lock products in ascending ID order</text><path d="M31.341,942.008 L88.679,942.008 L88.679,950.107 L78.679,960.107 L27.341,960.107 L27.341,946.008 A4,4 0 0 1 31.341,942.008" style="stroke:#000;stroke-width:1.5;" fill="#F8FAFC"/><rect x="27.341" y="942.008" width="2337.482" height="680.367" fill="none" style="stroke:#94A3B8;stroke-width:1.5;" rx="4" ry="4"/><text x="42.341" y="956.14" fill="#000" font-size="14" textLength="16.338" font-weight="700" font-family="Arial">alt</text><text x="103.679" y="957.14" fill="#000" font-size="14" textLength="406.041" font-weight="700" font-family="Arial">[Inactive product/shop, insufficient stock, or invalid quantity]</text><polygon points="1219.439,989.304,1209.439,993.304,1219.439,997.304,1215.439,993.304" fill="#475569" style="stroke:#475569;stroke-width:1;stroke-linejoin:miter;stroke-miterlimit:10;"/><line x1="1213.439" y1="993.304" x2="1535.934" y2="993.304" style="stroke:#475569;stroke-width:1.2;stroke-dasharray:2,2;"/><text x="1225.439" y="988.337" fill="#000" font-size="14" textLength="15.572" font-weight="700" font-family="Arial">22</text><text x="1245.011" y="988.337" fill="#000" font-size="14" textLength="59.931" font-family="Arial">exception</text><polygon points="850.448,1019.403,840.448,1023.403,850.448,1027.403,846.448,1023.403" fill="#475569" style="stroke:#475569;stroke-width:1;stroke-linejoin:miter;stroke-miterlimit:10;"/><line x1="844.448" y1="1023.403" x2="1207.439" y2="1023.403" style="stroke:#475569;stroke-width:1.2;stroke-dasharray:2,2;"/><text x="856.448" y="1018.436" fill="#000" font-size="14" textLength="15.572" font-weight="700" font-family="Arial">23</text><text x="876.02" y="1018.436" fill="#000" font-size="14" textLength="131.503" font-family="Arial">transaction rolls back</text><polygon points="480.042,1049.501,470.042,1053.501,480.042,1057.501,476.042,1053.501" fill="#475569" style="stroke:#475569;stroke-width:1;stroke-linejoin:miter;stroke-miterlimit:10;"/><line x1="474.042" y1="1053.501" x2="838.448" y2="1053.501" style="stroke:#475569;stroke-width:1.2;stroke-dasharray:2,2;"/><text x="486.042" y="1048.535" fill="#000" font-size="14" textLength="15.572" font-weight="700" font-family="Arial">24</text><text x="505.615" y="1048.535" fill="#000" font-size="14" textLength="116.724" font-family="Arial">error ApiResponse</text><polygon points="54.341,1079.6,44.341,1083.6,54.341,1087.6,50.341,1083.6" fill="#475569" style="stroke:#475569;stroke-width:1;stroke-linejoin:miter;stroke-miterlimit:10;"/><line x1="48.341" y1="1083.6" x2="468.042" y2="1083.6" style="stroke:#475569;stroke-width:1.2;stroke-dasharray:2,2;"/><text x="60.341" y="1078.633" fill="#000" font-size="14" textLength="15.572" font-weight="700" font-family="Arial">25</text><text x="79.914" y="1078.633" fill="#000" font-size="14" textLength="191.427" font-family="Arial">display error; order not created</text><line x1="27.341" y1="1092.6" x2="2364.824" y2="1092.6" style="stroke:#94A3B8;stroke-width:1;stroke-dasharray:2,2;"/><text x="32.341" y="1107.732" fill="#000" font-size="14" textLength="125.262" font-weight="700" font-family="Arial">[Reservation valid]</text><line x1="1536.934" y1="1135.797" x2="1578.934" y2="1135.797" style="stroke:#475569;stroke-width:1.2;"/><line x1="1578.934" y1="1135.797" x2="1578.934" y2="1148.797" style="stroke:#475569;stroke-width:1.2;"/><line x1="1537.934" y1="1148.797" x2="1578.934" y2="1148.797" style="stroke:#475569;stroke-width:1.2;"/><polygon points="1547.934,1144.797,1537.934,1148.797,1547.934,1152.797,1543.934,1148.797" fill="#475569" style="stroke:#475569;stroke-width:1;stroke-linejoin:miter;stroke-miterlimit:10;"/><text x="1543.934" y="1130.831" fill="#000" font-size="14" textLength="15.572" font-weight="700" font-family="Arial">26</text><text x="1563.506" y="1130.831" fill="#000" font-size="14" textLength="263.006" font-family="Arial">decrement stock; return reserved products</text><polygon points="1821.512,1190.995,1831.512,1194.995,1821.512,1198.995,1825.512,1194.995" fill="#475569" style="stroke:#475569;stroke-width:1;stroke-linejoin:miter;stroke-miterlimit:10;"/><line x1="1208.439" y1="1194.995" x2="1827.512" y2="1194.995" style="stroke:#475569;stroke-width:1.2;"/><text x="1215.439" y="1181.979" fill="#000" font-size="14" textLength="15.572" font-weight="700" font-family="Arial">27</text><text x="1235.011" y="1173.929" fill="#000" font-size="14" textLength="291.806" font-family="Arial">create(customer, address, products, quantities,</text><text x="1235.011" y="1190.028" fill="#000" font-size="14" textLength="218.682" font-family="Arial">shippingMethods, paymentMethod)</text><path d="M1821.512,1206.995 L1892.057,1206.995 L1892.057,1215.093 L1882.057,1225.093 L1817.512,1225.093 L1817.512,1210.995 A4,4 0 0 1 1821.512,1206.995" style="stroke:#000;stroke-width:1.5;" fill="#F8FAFC"/><rect x="1817.512" y="1206.995" width="387.633" height="148.592" fill="none" style="stroke:#94A3B8;stroke-width:1.5;" rx="4" ry="4"/><text x="1832.512" y="1221.126" fill="#000" font-size="14" textLength="29.545" font-weight="700" font-family="Arial">loop</text><text x="1907.057" y="1222.126" fill="#000" font-size="14" textLength="171.931" font-weight="700" font-family="Arial">[One sub-order per seller]</text><polygon points="2177.145,1254.291,2187.145,1258.291,2177.145,1262.291,2181.145,1258.291" fill="#475569" style="stroke:#475569;stroke-width:1;stroke-linejoin:miter;stroke-miterlimit:10;"/><line x1="1833.512" y1="1258.291" x2="2183.145" y2="1258.291" style="stroke:#475569;stroke-width:1.2;"/><text x="1840.512" y="1253.324" fill="#000" font-size="14" textLength="15.572" font-weight="700" font-family="Arial">28</text><text x="1860.084" y="1253.324" fill="#000" font-size="14" textLength="312.061" font-family="Arial">calculateShippingFee(sellerId, method, addressId)</text><polygon points="1844.512,1284.389,1834.512,1288.389,1844.512,1292.389,1840.512,1288.389" fill="#475569" style="stroke:#475569;stroke-width:1;stroke-linejoin:miter;stroke-miterlimit:10;"/><line x1="1838.512" y1="1288.389" x2="2188.145" y2="1288.389" style="stroke:#475569;stroke-width:1.2;stroke-dasharray:2,2;"/><text x="1850.512" y="1283.422" fill="#000" font-size="14" textLength="15.572" font-weight="700" font-family="Arial">29</text><text x="1870.084" y="1283.422" fill="#000" font-size="14" textLength="19.462" font-family="Arial">fee</text><line x1="1833.512" y1="1334.586" x2="1875.512" y2="1334.586" style="stroke:#475569;stroke-width:1.2;"/><line x1="1875.512" y1="1334.586" x2="1875.512" y2="1347.586" style="stroke:#475569;stroke-width:1.2;"/><line x1="1834.512" y1="1347.586" x2="1875.512" y2="1347.586" style="stroke:#475569;stroke-width:1.2;"/><polygon points="1844.512,1343.586,1834.512,1347.586,1844.512,1351.586,1840.512,1347.586" fill="#475569" style="stroke:#475569;stroke-width:1;stroke-linejoin:miter;stroke-miterlimit:10;"/><text x="1840.512" y="1321.57" fill="#000" font-size="14" textLength="15.572" font-weight="700" font-family="Arial">30</text><text x="1860.084" y="1313.521" fill="#000" font-size="14" textLength="264.612" font-family="Arial">snapshot product name, price and quantity</text><text x="1860.084" y="1329.62" fill="#000" font-size="14" textLength="313.94" font-family="Arial">Order=PENDING_PAYMENT; calculate seller total</text><line x1="1833.512" y1="1407.784" x2="1875.512" y2="1407.784" style="stroke:#475569;stroke-width:1.2;"/><line x1="1875.512" y1="1407.784" x2="1875.512" y2="1420.784" style="stroke:#475569;stroke-width:1.2;"/><line x1="1834.512" y1="1420.784" x2="1875.512" y2="1420.784" style="stroke:#475569;stroke-width:1.2;"/><polygon points="1844.512,1416.784,1834.512,1420.784,1844.512,1424.784,1840.512,1420.784" fill="#475569" style="stroke:#475569;stroke-width:1;stroke-linejoin:miter;stroke-miterlimit:10;"/><text x="1840.512" y="1394.768" fill="#000" font-size="14" textLength="15.572" font-weight="700" font-family="Arial">31</text><text x="1860.084" y="1386.718" fill="#000" font-size="14" textLength="235.396" font-family="Arial">aggregate totals; Payment=PENDING</text><text x="1860.084" y="1402.817" fill="#000" font-size="14" textLength="243.934" font-family="Arial">OrderGroup.paymentStatus=PENDING</text><polygon points="1219.439,1446.882,1209.439,1450.882,1219.439,1454.882,1215.439,1450.882" fill="#475569" style="stroke:#475569;stroke-width:1;stroke-linejoin:miter;stroke-miterlimit:10;"/><line x1="1213.439" y1="1450.882" x2="1832.512" y2="1450.882" style="stroke:#475569;stroke-width:1.2;stroke-dasharray:2,2;"/><text x="1225.439" y="1445.916" fill="#000" font-size="14" textLength="15.572" font-weight="700" font-family="Arial">32</text><text x="1245.011" y="1445.916" fill="#000" font-size="14" textLength="269.213" font-family="Arial">OrderGroup with sub-orders/items/payment</text><polygon points="2336.824,1476.981,2346.824,1480.981,2336.824,1484.981,2340.824,1480.981" fill="#475569" style="stroke:#475569;stroke-width:1;stroke-linejoin:miter;stroke-miterlimit:10;"/><line x1="1208.439" y1="1480.981" x2="2342.824" y2="1480.981" style="stroke:#475569;stroke-width:1.2;"/><text x="1215.439" y="1476.014" fill="#000" font-size="14" textLength="15.572" font-weight="700" font-family="Arial">33</text><text x="1235.011" y="1476.014" fill="#000" font-size="14" textLength="217.882" font-family="Arial">save(group), cascade child records</text><line x1="1208.439" y1="1511.08" x2="1250.439" y2="1511.08" style="stroke:#475569;stroke-width:1.2;"/><line x1="1250.439" y1="1511.08" x2="1250.439" y2="1524.08" style="stroke:#475569;stroke-width:1.2;"/><line x1="1209.439" y1="1524.08" x2="1250.439" y2="1524.08" style="stroke:#475569;stroke-width:1.2;"/><polygon points="1219.439,1520.08,1209.439,1524.08,1219.439,1528.08,1215.439,1524.08" fill="#475569" style="stroke:#475569;stroke-width:1;stroke-linejoin:miter;stroke-miterlimit:10;"/><text x="1215.439" y="1506.113" fill="#000" font-size="14" textLength="15.572" font-weight="700" font-family="Arial">34</text><text x="1235.011" y="1506.113" fill="#000" font-size="14" textLength="277.771" font-family="Arial">remove selected cart items (orphan removal)</text><polygon points="850.448,1550.178,840.448,1554.178,850.448,1558.178,846.448,1554.178" fill="#475569" style="stroke:#475569;stroke-width:1;stroke-linejoin:miter;stroke-miterlimit:10;"/><line x1="844.448" y1="1554.178" x2="1207.439" y2="1554.178" style="stroke:#475569;stroke-width:1.2;stroke-dasharray:2,2;"/><text x="856.448" y="1549.211" fill="#000" font-size="14" textLength="15.572" font-weight="700" font-family="Arial">35</text><text x="876.02" y="1549.211" fill="#000" font-size="14" textLength="115.944" font-family="Arial">saved OrderGroup</text><polygon points="480.042,1580.277,470.042,1584.277,480.042,1588.277,476.042,1584.277" fill="#475569" style="stroke:#475569;stroke-width:1;stroke-linejoin:miter;stroke-miterlimit:10;"/><line x1="474.042" y1="1584.277" x2="838.448" y2="1584.277" style="stroke:#475569;stroke-width:1.2;stroke-dasharray:2,2;"/><text x="486.042" y="1579.31" fill="#000" font-size="14" textLength="15.572" font-weight="700" font-family="Arial">36</text><text x="505.615" y="1579.31" fill="#000" font-size="14" textLength="164.985" font-family="Arial">201 OrderGroupResponse</text><polygon points="54.341,1610.375,44.341,1614.375,54.341,1618.375,50.341,1614.375" fill="#475569" style="stroke:#475569;stroke-width:1;stroke-linejoin:miter;stroke-miterlimit:10;"/><line x1="48.341" y1="1614.375" x2="468.042" y2="1614.375" style="stroke:#475569;stroke-width:1.2;stroke-dasharray:2,2;"/><text x="60.341" y="1609.409" fill="#000" font-size="14" textLength="15.572" font-weight="700" font-family="Arial">37</text><text x="79.914" y="1609.409" fill="#000" font-size="14" textLength="225.695" font-family="Arial">show saved order; payment pending</text><path d="M1127.077,1645.375 L1127.077,1711.375 A4,4 0 0 0 1131.077,1715.375 L1614.077,1715.375 A4,4 0 0 0 1618.077,1711.375 L1618.077,1651.375 L1608.077,1641.375 L1131.077,1641.375 A4,4 0 0 0 1127.077,1645.375" style="stroke:#D97706;stroke-width:0.5;" fill="#FFF7ED"/><path d="M1608.077,1641.375 L1608.077,1649.375 A2,2 0 0 0 1610.077,1651.375 L1618.077,1651.375 L1608.077,1641.375" style="stroke:#D97706;stroke-width:0.5;" fill="#FFF7ED"/><text x="1153.412" y="1659.507" fill="#7C2D12" font-size="14" textLength="378.164" font-family="Arial">Checkout selects all cart items; reserve uses database locks.</text><text x="1153.412" y="1675.606" fill="#7C2D12" font-size="14" textLength="392.191" font-family="Arial">The lower-level orchestration method has a fallback that inserts</text><text x="1153.412" y="1691.705" fill="#7C2D12" font-size="14" textLength="406.191" font-family="Arial">quantity 2 of a first ACTIVE in-stock product if nothing is selected.</text><text x="1153.412" y="1707.803" fill="#7C2D12" font-size="14" textLength="429.55" font-family="Arial">The customer checkout facade rejects an empty cart before this path.</text><?plantuml-src hLTjRzis4FwkNy7bonp0iRP-hB5YUIqye4amfmM6kYWOwMopfKYMf9m8G__xxYYHabmdNR7bIopnNfzxxexwIQX2rYMmZyut4cQchcJcXPV0tjJIYvCbI0cMdM-X-AnhpxWgsTBhuZFx4npO7VT2gupNNgkwkWURyS9houxEQ-Tr1VQ8SSVYGsQuzQ8GXYlFZgxXqSy-kPKged5ZzMCJDEXiB1rjn4ZEjV9MX-3obTe_NM9eee3MU_TkRE_6bc1lBFfsteOiEfr5PO9Q471ZfONQWSBycZtPzFw0ZmlBr_ugmD94-UvnBBtS2cE4sbm1d7DPr98JafZSu619iSAcwGm4O_4uAxddzzm1E_hZzfHPCDe9b1BWWjp5MPP5dDZ9gu0nUybUNzwnd1kHnp9auG05Kj5ViZFW5hMy_WngZgQ_rC92DBOe9yTP4aR5YpDKiS1BLc22KwOV59ICbwK5vy1DuqzMExw1WMeVbV1GzOAauxeqtu3VwX9V6DvKY7htt4LDOSSSN_OP5CWMefJKsh1BNcpH7FuYDlCT5vBV8-EZ1rO5aspoTX5IHOOu9XGwj1m99uypnWu0UNkpt4Co_r9h3olrjmjTj2ZtiqW9BiglQFG0yC72105moD0Uy6aCBCGoW7wWsbLfZFwyJHopeTBWKssCjXu5sgJtp4LkeRcYuoGCw3Zf4wls4wB8alh9EBHagsHhW97F7i-17vmrHYi72QDncLFX0bePg3BxT_NHeSUfG9s5qnWzLYgajdoMTLyFzShlxxWKPImGGjmMZnKn956Y0U6Rx4SA5xYgj8BA-2OKRwMY83pYE90DmzDl2ieCUYJnBg5l6nNVG-4PxC2sXaFpuKp5dzsSOpjA2UlbC0jhCNpcQ0cCZBK3awgBhUyXFBwskZPNLbTaR3ARpOwpJYnwNmjLdZKziw-qVMl8rQH8xuvNIcgS9WG1HYdM3UiA5J2oLBs1tJuGsW-5xp94IC9KcICoTWEqRSeQJx_KdCg1Ot9W8qtqK0_QT33f1O-p_Zmc8cafTZR3kE2kG2OIBHSNB30juzAZPIoMs2N_EJNa51LSlLxZCaZWujn4hgW0VGoomGuOk1uc2uy5cB2DMNovrtMuEvGZvqX6MfsEtNEiuU7k0slH_QaHt-czKZWZUTFApziyaQU-Oq6PWSIDDBWij5mQvp76kmJKhH8Ej6zyRLMiGvbG7cJwAkxKnB_4dpIJfabnEYZwTAMUNoqqoCBUk0djTN_IvaXzrRKKmx_e_hyFpRsnsUVLZigHg_xGAMwGIJxHMl4AA6DgNsgSoA2L2fZzTdjvVR6uVltnzlIlDvVNT_C-rYujtFQUI_H8y_G9htopiR0XdI2ClNNRGXVDTzx279Xri2uzzxMB4aFJGpxtUkn1-6sFlCj36-UTjH49se76iLatf7aynQnSmV62Mso5fA5Se8qnSP9799tUGJyjqYnqRAAjsNBLYl1m0pZSO-Ix7CJ-H7Uz-ENNWT1trvj-w0m70EQHdyZ1C632niEUmvM1ux6BR3gubQOGsjnmcKWvI6yUMmilP3ZYqpsIHfgRPNTR-la0zaJYaf0OnE3M7DVC5c-OdAtHC0qLvhVSqqm3YsqQgSTUCBqcAM6TPwVdTujtboXq4jey4LUiQNviYV_2fMgqOQGTchuPrZoKryAdDZ75-Wt9xc6jSJ-YCOUO-UsCa2BhaFtCbhgs1JZiAqktGrNcpXPveIki1UBcyeXQZYiA7cVUFSx7ijoOyNtY_NjSSUJemuSS2-i1bOQU29geN76Xyazu-ymnSGe-_Uy_RVAdltfcfFhZjhk5delAo31ZyoS-dOBzENlkC-b_2-70PzNG_TuNL3Zw1m00?></g></svg>