<svg xmlns="http://www.w3.org/2000/svg" xmlns:xlink="http://www.w3.org/1999/xlink" version="1.1" data-diagram-type="SEQUENCE" style="width:1955px;height:1933px;background:#FFFFFF;" width="1955px" height="1933px" viewBox="0 0 1955 1933" zoomAndPan="magnify" preserveAspectRatio="none" contentStyleType="text/css"><?plantuml 1.2026.8?><defs/><g font-family="sans-serif" lengthAdjust="spacing"><g class="title" data-source-line="2"><text x="758.209" y="34.698" fill="#0F172A" font-size="21" textLength="437.534" font-weight="700" font-family="Arial">Payment Simulation: Current Frontend Path</text></g><rect x="27.341" y="561.627" width="1908.61" height="1106.143" fill="#F8FAFC" style="stroke:#F8FAFC;stroke-width:1;" rx="4" ry="4"/><rect x="27.341" y="561.627" width="1908.61" height="1106.143" fill="none" style="stroke:#94A3B8;stroke-width:1.5;" rx="4" ry="4"/><rect x="363.499" y="647.022" width="1344.788" height="314.184" fill="#F8FAFC" style="stroke:#F8FAFC;stroke-width:1;" rx="4" ry="4"/><rect x="363.499" y="647.022" width="1344.788" height="314.184" fill="none" style="stroke:#94A3B8;stroke-width:1.5;" rx="4" ry="4"/><rect x="772.09" y="1190.995" width="1138.861" height="342.381" fill="#F8FAFC" style="stroke:#F8FAFC;stroke-width:1;" rx="4" ry="4"/><rect x="772.09" y="1190.995" width="1138.861" height="342.381" fill="none" style="stroke:#94A3B8;stroke-width:1.5;" rx="4" ry="4"/><rect x="1156.971" y="1322.586" width="728.98" height="136.592" fill="#F8FAFC" style="stroke:#F8FAFC;stroke-width:1;" rx="4" ry="4"/><rect x="1156.971" y="1322.586" width="728.98" height="136.592" fill="none" style="stroke:#94A3B8;stroke-width:1.5;" rx="4" ry="4"/><rect x="1175.971" y="1385.882" width="684.98" height="59.296" fill="#F8FAFC" style="stroke:#F8FAFC;stroke-width:1;" rx="4" ry="4"/><rect x="1175.971" y="1385.882" width="684.98" height="59.296" fill="none" style="stroke:#94A3B8;stroke-width:1.5;" rx="4" ry="4"/><g><title>Customer</title><rect x="39.841" y="133.345" width="8" height="1711.115" fill="#000" fill-opacity="0"/><line x1="43.341" y1="133.345" x2="43.341" y2="1844.46" style="stroke:#94A3B8;stroke-width:0.5;stroke-dasharray:5,5;"/></g><g><title>Next.js</title><rect x="375.999" y="133.345" width="8" height="1711.115" fill="#000" fill-opacity="0"/><line x1="379.499" y1="133.345" x2="379.499" y2="1844.46" style="stroke:#94A3B8;stroke-width:0.5;stroke-dasharray:5,5;"/></g><g><title>Checkout . Payment</title><rect x="784.59" y="133.345" width="8" height="1711.115" fill="#000" fill-opacity="0"/><line x1="788.09" y1="133.345" x2="788.09" y2="1844.46" style="stroke:#94A3B8;stroke-width:0.5;stroke-dasharray:5,5;"/></g><g><title>PaymentServiceImp</title><rect x="1188.471" y="133.345" width="8" height="1711.115" fill="#000" fill-opacity="0"/><line x1="1191.971" y1="133.345" x2="1191.971" y2="1844.46" style="stroke:#94A3B8;stroke-width:0.5;stroke-dasharray:5,5;"/></g><g><title>Payment . OrderGroup .</title><rect x="1688.787" y="133.345" width="8" height="1711.115" fill="#000" fill-opacity="0"/><line x1="1692.287" y1="133.345" x2="1692.287" y2="1844.46" style="stroke:#94A3B8;stroke-width:0.5;stroke-dasharray:5,5;"/></g><g><title>NotificationService</title><rect x="1841.452" y="133.345" width="8" height="1711.115" fill="#000" fill-opacity="0"/><line x1="1844.952" y1="133.345" x2="1844.952" y2="1844.46" style="stroke:#94A3B8;stroke-width:0.5;stroke-dasharray:5,5;"/></g><text x="10" y="130.378" fill="#000" font-size="14" textLength="60.683" font-family="Arial">Customer</text><ellipse cx="43.341" cy="65.747" rx="8" ry="8" fill="#FFF" style="stroke:#334155;stroke-width:0.5;"/><path d="M43.341,73.747 L43.341,100.747 M30.341,81.747 L56.341,81.747 M43.341,100.747 L30.341,115.747 M43.341,100.747 L56.341,115.747" style="stroke:#334155;stroke-width:0.5;" fill="none"/><rect x="297.396" y="86.148" width="164.206" height="46.197" fill="#F0FDF4" style="stroke:#15803D;stroke-width:0.5;" rx="4" ry="4"/><text x="358.105" y="106.28" fill="#000" font-size="14" textLength="42.786" font-family="Arial">Next.js</text><text x="304.396" y="122.378" fill="#000" font-size="14" textLength="150.206" font-family="Arial">payment/{orderGroupId}</text><rect x="700.368" y="86.148" width="175.444" height="46.197" fill="#F0FDF4" style="stroke:#15803D;stroke-width:0.5;" rx="4" ry="4"/><text x="725.06" y="106.28" fill="#000" font-size="14" textLength="126.062" font-family="Arial">Checkout / Payment</text><text x="707.368" y="122.378" fill="#000" font-size="14" textLength="161.444" font-family="Arial">controllers + OrderAccess</text><rect x="1122.337" y="102.247" width="139.269" height="30.099" fill="#F0FDF4" style="stroke:#15803D;stroke-width:0.5;" rx="4" ry="4"/><text x="1129.337" y="122.378" fill="#000" font-size="14" textLength="125.269" font-family="Arial">PaymentServiceImp</text><text x="1614.59" y="114.28" fill="#000" font-size="14" textLength="149.393" font-family="Arial">Payment / OrderGroup /</text><text x="1633.266" y="130.378" fill="#000" font-size="14" textLength="112.041" font-family="Arial">Order repositories</text><path d="M1674.287,65.148 C1674.287,55.148 1692.287,55.148 1692.287,55.148 C1692.287,55.148 1710.287,55.148 1710.287,65.148 L1710.287,91.148 C1710.287,101.148 1692.287,101.148 1692.287,101.148 C1692.287,101.148 1674.287,101.148 1674.287,91.148 L1674.287,65.148" style="stroke:#181818;stroke-width:0.5;" fill="#E2E2F0"/><path d="M1674.287,65.148 C1674.287,75.148 1692.287,75.148 1692.287,75.148 C1692.287,75.148 1710.287,75.148 1710.287,65.148" style="stroke:#181818;stroke-width:0.5;" fill="none"/><rect x="1779.983" y="102.247" width="129.938" height="30.099" fill="#F0FDF4" style="stroke:#15803D;stroke-width:0.5;" rx="4" ry="4"/><text x="1786.983" y="122.378" fill="#000" font-size="14" textLength="115.938" font-family="Arial">NotificationService</text><text x="10" y="1857.592" fill="#000" font-size="14" textLength="60.683" font-family="Arial">Customer</text><ellipse cx="43.341" cy="1869.059" rx="8" ry="8" fill="#FFF" style="stroke:#334155;stroke-width:0.5;"/><path d="M43.341,1877.059 L43.341,1904.059 M30.341,1885.059 L56.341,1885.059 M43.341,1904.059 L30.341,1919.059 M43.341,1904.059 L56.341,1919.059" style="stroke:#334155;stroke-width:0.5;" fill="none"/><rect x="297.396" y="1844.46" width="164.206" height="46.197" fill="#F0FDF4" style="stroke:#15803D;stroke-width:0.5;" rx="4" ry="4"/><text x="358.105" y="1864.592" fill="#000" font-size="14" textLength="42.786" font-family="Arial">Next.js</text><text x="304.396" y="1880.691" fill="#000" font-size="14" textLength="150.206" font-family="Arial">payment/{orderGroupId}</text><rect x="700.368" y="1844.46" width="175.444" height="46.197" fill="#F0FDF4" style="stroke:#15803D;stroke-width:0.5;" rx="4" ry="4"/><text x="725.06" y="1864.592" fill="#000" font-size="14" textLength="126.062" font-family="Arial">Checkout / Payment</text><text x="707.368" y="1880.691" fill="#000" font-size="14" textLength="161.444" font-family="Arial">controllers + OrderAccess</text><rect x="1122.337" y="1844.46" width="139.269" height="30.099" fill="#F0FDF4" style="stroke:#15803D;stroke-width:0.5;" rx="4" ry="4"/><text x="1129.337" y="1864.592" fill="#000" font-size="14" textLength="125.269" font-family="Arial">PaymentServiceImp</text><text x="1614.59" y="1857.592" fill="#000" font-size="14" textLength="149.393" font-family="Arial">Payment / OrderGroup /</text><text x="1633.266" y="1873.691" fill="#000" font-size="14" textLength="112.041" font-family="Arial">Order repositories</text><path d="M1674.287,1886.658 C1674.287,1876.658 1692.287,1876.658 1692.287,1876.658 C1692.287,1876.658 1710.287,1876.658 1710.287,1886.658 L1710.287,1912.658 C1710.287,1922.658 1692.287,1922.658 1692.287,1922.658 C1692.287,1922.658 1674.287,1922.658 1674.287,1912.658 L1674.287,1886.658" style="stroke:#181818;stroke-width:0.5;" fill="#E2E2F0"/><path d="M1674.287,1886.658 C1674.287,1896.658 1692.287,1896.658 1692.287,1896.658 C1692.287,1896.658 1710.287,1896.658 1710.287,1886.658" style="stroke:#181818;stroke-width:0.5;" fill="none"/><rect x="1779.983" y="1844.46" width="129.938" height="30.099" fill="#F0FDF4" style="stroke:#15803D;stroke-width:0.5;" rx="4" ry="4"/><text x="1786.983" y="1864.592" fill="#000" font-size="14" textLength="115.938" font-family="Arial">NotificationService</text><polygon points="367.499,159.444,377.499,163.444,367.499,167.444,371.499,163.444" fill="#475569" style="stroke:#475569;stroke-width:1;stroke-linejoin:miter;stroke-miterlimit:10;"/><line x1="43.341" y1="163.444" x2="373.499" y2="163.444" style="stroke:#475569;stroke-width:1.2;"/><text x="50.341" y="158.477" fill="#000" font-size="14" font-weight="700" font-family="Arial">1</text><text x="62.127" y="158.477" fill="#000" font-size="14" textLength="218.675" font-family="Arial">POST /api/payment/{orderGroupId}</text><line x1="379.499" y1="193.542" x2="421.499" y2="193.542" style="stroke:#475569;stroke-width:1.2;"/><line x1="421.499" y1="193.542" x2="421.499" y2="206.542" style="stroke:#475569;stroke-width:1.2;"/><line x1="380.499" y1="206.542" x2="421.499" y2="206.542" style="stroke:#475569;stroke-width:1.2;"/><polygon points="390.499,202.542,380.499,206.542,390.499,210.542,386.499,206.542" fill="#475569" style="stroke:#475569;stroke-width:1;stroke-linejoin:miter;stroke-miterlimit:10;"/><text x="386.499" y="188.576" fill="#000" font-size="14" font-weight="700" font-family="Arial">2</text><text x="398.285" y="188.576" fill="#000" font-size="14" textLength="220.247" font-family="Arial">validate numeric ID and auth_token</text><polygon points="776.09,248.74,786.09,252.74,776.09,256.74,780.09,252.74" fill="#475569" style="stroke:#475569;stroke-width:1;stroke-linejoin:miter;stroke-miterlimit:10;"/><line x1="379.499" y1="252.74" x2="782.09" y2="252.74" style="stroke:#475569;stroke-width:1.2;"/><text x="386.499" y="239.724" fill="#000" font-size="14" font-weight="700" font-family="Arial">3</text><text x="398.285" y="231.674" fill="#000" font-size="14" textLength="182.875" font-family="Arial">GET /api/checkout/orders/{id}</text><text x="398.285" y="247.773" fill="#000" font-size="14" textLength="131.517" font-family="Arial">Authorization: Bearer</text><polygon points="390.499,278.838,380.499,282.838,390.499,286.838,386.499,282.838" fill="#475569" style="stroke:#475569;stroke-width:1;stroke-linejoin:miter;stroke-miterlimit:10;"/><line x1="384.499" y1="282.838" x2="787.09" y2="282.838" style="stroke:#475569;stroke-width:1.2;stroke-dasharray:2,2;"/><text x="396.499" y="277.872" fill="#000" font-size="14" font-weight="700" font-family="Arial">4</text><text x="408.285" y="277.872" fill="#000" font-size="14" textLength="182.882" font-family="Arial">owned OrderGroupResponse</text><line x1="379.499" y1="312.937" x2="421.499" y2="312.937" style="stroke:#475569;stroke-width:1.2;"/><line x1="421.499" y1="312.937" x2="421.499" y2="325.937" style="stroke:#475569;stroke-width:1.2;"/><line x1="380.499" y1="325.937" x2="421.499" y2="325.937" style="stroke:#475569;stroke-width:1.2;"/><polygon points="390.499,321.937,380.499,325.937,390.499,329.937,386.499,325.937" fill="#475569" style="stroke:#475569;stroke-width:1;stroke-linejoin:miter;stroke-miterlimit:10;"/><text x="386.499" y="307.97" fill="#000" font-size="14" font-weight="700" font-family="Arial">5</text><text x="398.285" y="307.97" fill="#000" font-size="14" textLength="382.806" font-family="Arial">require group PENDING and all orders PENDING_PAYMENT</text><polygon points="776.09,352.036,786.09,356.036,776.09,360.036,780.09,356.036" fill="#475569" style="stroke:#475569;stroke-width:1;stroke-linejoin:miter;stroke-miterlimit:10;"/><line x1="379.499" y1="356.036" x2="782.09" y2="356.036" style="stroke:#475569;stroke-width:1.2;"/><text x="386.499" y="351.069" fill="#000" font-size="14" font-weight="700" font-family="Arial">6</text><text x="398.285" y="351.069" fill="#000" font-size="14" textLength="221.006" font-family="Arial">GET /api/payments/order-group/{id}</text><polygon points="1179.971,382.134,1189.971,386.134,1179.971,390.134,1183.971,386.134" fill="#475569" style="stroke:#475569;stroke-width:1;stroke-linejoin:miter;stroke-miterlimit:10;"/><line x1="788.09" y1="386.134" x2="1185.971" y2="386.134" style="stroke:#475569;stroke-width:1.2;"/><text x="795.09" y="381.167" fill="#000" font-size="14" font-weight="700" font-family="Arial">7</text><text x="806.876" y="381.167" fill="#000" font-size="14" textLength="197.641" font-family="Arial">getPaymentByOrderGroupId(id)</text><polygon points="1680.287,412.233,1690.287,416.233,1680.287,420.233,1684.287,416.233" fill="#475569" style="stroke:#475569;stroke-width:1;stroke-linejoin:miter;stroke-miterlimit:10;"/><line x1="1191.971" y1="416.233" x2="1686.287" y2="416.233" style="stroke:#475569;stroke-width:1.2;"/><text x="1198.971" y="411.266" fill="#000" font-size="14" font-weight="700" font-family="Arial">8</text><text x="1210.757" y="411.266" fill="#000" font-size="14" textLength="227.985" font-family="Arial">findByOrderGroup_OrderGroupId(id)</text><polygon points="1202.971,442.332,1192.971,446.332,1202.971,450.332,1198.971,446.332" fill="#475569" style="stroke:#475569;stroke-width:1;stroke-linejoin:miter;stroke-miterlimit:10;"/><line x1="1196.971" y1="446.332" x2="1691.287" y2="446.332" style="stroke:#475569;stroke-width:1.2;stroke-dasharray:2,2;"/><text x="1208.971" y="441.365" fill="#000" font-size="14" font-weight="700" font-family="Arial">9</text><text x="1220.757" y="441.365" fill="#000" font-size="14" textLength="55.248" font-family="Arial">Payment</text><polygon points="799.09,472.43,789.09,476.43,799.09,480.43,795.09,476.43" fill="#475569" style="stroke:#475569;stroke-width:1;stroke-linejoin:miter;stroke-miterlimit:10;"/><line x1="793.09" y1="476.43" x2="1190.971" y2="476.43" style="stroke:#475569;stroke-width:1.2;stroke-dasharray:2,2;"/><text x="805.09" y="471.463" fill="#000" font-size="14" textLength="15.572" font-weight="700" font-family="Arial">10</text><text x="824.663" y="471.463" fill="#000" font-size="14" textLength="55.248" font-family="Arial">Payment</text><polygon points="390.499,502.529,380.499,506.529,390.499,510.529,386.499,506.529" fill="#475569" style="stroke:#475569;stroke-width:1;stroke-linejoin:miter;stroke-miterlimit:10;"/><line x1="384.499" y1="506.529" x2="787.09" y2="506.529" style="stroke:#475569;stroke-width:1.2;stroke-dasharray:2,2;"/><text x="396.499" y="501.562" fill="#000" font-size="14" textLength="15.572" font-weight="700" font-family="Arial">11</text><text x="416.071" y="501.562" fill="#000" font-size="14" textLength="118.289" font-family="Arial">PaymentResponse</text><line x1="379.499" y1="536.627" x2="421.499" y2="536.627" style="stroke:#475569;stroke-width:1.2;"/><line x1="421.499" y1="536.627" x2="421.499" y2="549.627" style="stroke:#475569;stroke-width:1.2;"/><line x1="380.499" y1="549.627" x2="421.499" y2="549.627" style="stroke:#475569;stroke-width:1.2;"/><polygon points="390.499,545.627,380.499,549.627,390.499,553.627,386.499,549.627" fill="#475569" style="stroke:#475569;stroke-width:1;stroke-linejoin:miter;stroke-miterlimit:10;"/><text x="386.499" y="531.661" fill="#000" font-size="14" textLength="15.572" font-weight="700" font-family="Arial">12</text><text x="406.071" y="531.661" fill="#000" font-size="14" textLength="215.92" font-family="Arial">require Payment.status=PENDING</text><path d="M31.341,561.627 L88.679,561.627 L88.679,569.726 L78.679,579.726 L27.341,579.726 L27.341,565.627 A4,4 0 0 1 31.341,561.627" style="stroke:#000;stroke-width:1.5;" fill="#F8FAFC"/><rect x="27.341" y="561.627" width="1908.61" height="1106.143" fill="none" style="stroke:#94A3B8;stroke-width:1.5;" rx="4" ry="4"/><text x="42.341" y="575.759" fill="#000" font-size="14" textLength="16.338" font-weight="700" font-family="Arial">alt</text><text x="103.679" y="576.759" fill="#000" font-size="14" textLength="278.441" font-weight="700" font-family="Arial">[Group/order/payment no longer pending]</text><polygon points="54.341,608.923,44.341,612.923,54.341,616.923,50.341,612.923" fill="#475569" style="stroke:#475569;stroke-width:1;stroke-linejoin:miter;stroke-miterlimit:10;"/><line x1="48.341" y1="612.923" x2="378.499" y2="612.923" style="stroke:#475569;stroke-width:1.2;stroke-dasharray:2,2;"/><text x="60.341" y="607.957" fill="#000" font-size="14" textLength="15.572" font-weight="700" font-family="Arial">13</text><text x="79.914" y="607.957" fill="#000" font-size="14" textLength="199.985" font-family="Arial">409; refresh current order status</text><line x1="27.341" y1="621.923" x2="1935.952" y2="621.923" style="stroke:#94A3B8;stroke-width:1;stroke-dasharray:2,2;"/><text x="32.341" y="637.055" fill="#000" font-size="14" textLength="126.007" font-weight="700" font-family="Arial">[Pending payment]</text><path d="M367.499,647.022 L430.264,647.022 L430.264,655.121 L420.264,665.121 L363.499,665.121 L363.499,651.022 A4,4 0 0 1 367.499,647.022" style="stroke:#000;stroke-width:1.5;" fill="#F8FAFC"/><rect x="363.499" y="647.022" width="1344.788" height="314.184" fill="none" style="stroke:#94A3B8;stroke-width:1.5;" rx="4" ry="4"/><text x="378.499" y="661.154" fill="#000" font-size="14" textLength="21.766" font-weight="700" font-family="Arial">opt</text><text x="445.264" y="662.154" fill="#000" font-size="14" textLength="373.406" font-weight="700" font-family="Arial">[Gateway transaction ID absent (normal checkout draft)]</text><polygon points="776.09,710.417,786.09,714.417,776.09,718.417,780.09,714.417" fill="#475569" style="stroke:#475569;stroke-width:1;stroke-linejoin:miter;stroke-miterlimit:10;"/><line x1="379.499" y1="714.417" x2="782.09" y2="714.417" style="stroke:#475569;stroke-width:1.2;"/><text x="386.499" y="701.4" fill="#000" font-size="14" textLength="15.572" font-weight="700" font-family="Arial">14</text><text x="406.071" y="693.351" fill="#000" font-size="14" textLength="173.523" font-family="Arial">POST /api/payments/initiate</text><text x="406.071" y="709.45" fill="#000" font-size="14" textLength="336.198" font-family="Arial">{orderGroupId, persisted paymentMethod, grandTotal}</text><line x1="788.09" y1="744.515" x2="830.09" y2="744.515" style="stroke:#475569;stroke-width:1.2;"/><line x1="830.09" y1="744.515" x2="830.09" y2="757.515" style="stroke:#475569;stroke-width:1.2;"/><line x1="789.09" y1="757.515" x2="830.09" y2="757.515" style="stroke:#475569;stroke-width:1.2;"/><polygon points="799.09,753.515,789.09,757.515,799.09,761.515,795.09,757.515" fill="#475569" style="stroke:#475569;stroke-width:1;stroke-linejoin:miter;stroke-miterlimit:10;"/><text x="795.09" y="739.548" fill="#000" font-size="14" textLength="15.572" font-weight="700" font-family="Arial">15</text><text x="814.663" y="739.548" fill="#000" font-size="14" textLength="208.551" font-family="Arial">requireGroupRead(orderGroupId)</text><polygon points="1179.971,783.614,1189.971,787.614,1179.971,791.614,1183.971,787.614" fill="#475569" style="stroke:#475569;stroke-width:1;stroke-linejoin:miter;stroke-miterlimit:10;"/><line x1="788.09" y1="787.614" x2="1185.971" y2="787.614" style="stroke:#475569;stroke-width:1.2;"/><text x="795.09" y="782.647" fill="#000" font-size="14" textLength="15.572" font-weight="700" font-family="Arial">16</text><text x="814.663" y="782.647" fill="#000" font-size="14" textLength="224.889" font-family="Arial">initiatePayment(id, method, amount)</text><polygon points="1680.287,813.712,1690.287,817.712,1680.287,821.712,1684.287,817.712" fill="#475569" style="stroke:#475569;stroke-width:1;stroke-linejoin:miter;stroke-miterlimit:10;"/><line x1="1191.971" y1="817.712" x2="1686.287" y2="817.712" style="stroke:#475569;stroke-width:1.2;"/><text x="1198.971" y="812.746" fill="#000" font-size="14" textLength="15.572" font-weight="700" font-family="Arial">17</text><text x="1218.543" y="812.746" fill="#000" font-size="14" textLength="202.357" font-family="Arial">load group and existing payment</text><line x1="1191.971" y1="863.91" x2="1233.971" y2="863.91" style="stroke:#475569;stroke-width:1.2;"/><line x1="1233.971" y1="863.91" x2="1233.971" y2="876.91" style="stroke:#475569;stroke-width:1.2;"/><line x1="1192.971" y1="876.91" x2="1233.971" y2="876.91" style="stroke:#475569;stroke-width:1.2;"/><polygon points="1202.971,872.91,1192.971,876.91,1202.971,880.91,1198.971,876.91" fill="#475569" style="stroke:#475569;stroke-width:1;stroke-linejoin:miter;stroke-miterlimit:10;"/><text x="1198.971" y="850.894" fill="#000" font-size="14" textLength="15.572" font-weight="700" font-family="Arial">18</text><text x="1218.543" y="842.844" fill="#000" font-size="14" textLength="326.86" font-family="Arial">validate positive amount equals persisted grandTotal</text><text x="1218.543" y="858.943" fill="#000" font-size="14" textLength="352.406" font-family="Arial">reject SUCCESS/REFUNDED/PARTIALLY_REFUNDED</text><polygon points="1680.287,919.107,1690.287,923.107,1680.287,927.107,1684.287,923.107" fill="#475569" style="stroke:#475569;stroke-width:1;stroke-linejoin:miter;stroke-miterlimit:10;"/><line x1="1191.971" y1="923.107" x2="1686.287" y2="923.107" style="stroke:#475569;stroke-width:1.2;"/><text x="1198.971" y="910.091" fill="#000" font-size="14" textLength="15.572" font-weight="700" font-family="Arial">19</text><text x="1218.543" y="902.042" fill="#000" font-size="14" textLength="283.158" font-family="Arial">save PENDING payment with GW-TXN-UUID</text><text x="1218.543" y="918.14" fill="#000" font-size="14" textLength="238.506" font-family="Arial">save group.paymentStatus=PENDING</text><polygon points="390.499,949.206,380.499,953.206,390.499,957.206,386.499,953.206" fill="#475569" style="stroke:#475569;stroke-width:1;stroke-linejoin:miter;stroke-miterlimit:10;"/><line x1="384.499" y1="953.206" x2="1190.971" y2="953.206" style="stroke:#475569;stroke-width:1.2;stroke-dasharray:2,2;"/><text x="396.499" y="948.239" fill="#000" font-size="14" textLength="15.572" font-weight="700" font-family="Arial">20</text><text x="416.071" y="948.239" fill="#000" font-size="14" textLength="267.702" font-family="Arial">201 PaymentResponse (through controller)</text><polygon points="776.09,1009.403,786.09,1013.403,776.09,1017.403,780.09,1013.403" fill="#475569" style="stroke:#475569;stroke-width:1;stroke-linejoin:miter;stroke-miterlimit:10;"/><line x1="379.499" y1="1013.403" x2="782.09" y2="1013.403" style="stroke:#475569;stroke-width:1.2;"/><text x="386.499" y="1000.387" fill="#000" font-size="14" textLength="15.572" font-weight="700" font-family="Arial">21</text><text x="406.071" y="992.337" fill="#000" font-size="14" textLength="185.186" font-family="Arial">POST /api/payments/simulate</text><text x="406.071" y="1008.436" fill="#000" font-size="14" textLength="191.434" font-family="Arial">{orderGroupId, isSuccess:true}</text><polygon points="1179.971,1039.501,1189.971,1043.501,1179.971,1047.501,1183.971,1043.501" fill="#475569" style="stroke:#475569;stroke-width:1;stroke-linejoin:miter;stroke-miterlimit:10;"/><line x1="788.09" y1="1043.501" x2="1185.971" y2="1043.501" style="stroke:#475569;stroke-width:1.2;"/><text x="795.09" y="1038.535" fill="#000" font-size="14" textLength="15.572" font-weight="700" font-family="Arial">22</text><text x="814.663" y="1038.535" fill="#000" font-size="14" textLength="360.309" font-family="Arial">resolve stored gatewayTransactionId; load target payment</text><line x1="788.09" y1="1089.699" x2="830.09" y2="1089.699" style="stroke:#475569;stroke-width:1.2;"/><line x1="830.09" y1="1089.699" x2="830.09" y2="1102.699" style="stroke:#475569;stroke-width:1.2;"/><line x1="789.09" y1="1102.699" x2="830.09" y2="1102.699" style="stroke:#475569;stroke-width:1.2;"/><polygon points="799.09,1098.699,789.09,1102.699,799.09,1106.699,795.09,1102.699" fill="#475569" style="stroke:#475569;stroke-width:1;stroke-linejoin:miter;stroke-miterlimit:10;"/><text x="795.09" y="1076.683" fill="#000" font-size="14" textLength="15.572" font-weight="700" font-family="Arial">23</text><text x="814.663" y="1068.633" fill="#000" font-size="14" textLength="211.668" font-family="Arial">requireGroupRead(targetGroupId)</text><text x="814.663" y="1084.732" fill="#000" font-size="14" textLength="214.006" font-family="Arial">reject conflicting supplied group ID</text><polygon points="1179.971,1128.797,1189.971,1132.797,1179.971,1136.797,1183.971,1132.797" fill="#475569" style="stroke:#475569;stroke-width:1;stroke-linejoin:miter;stroke-miterlimit:10;"/><line x1="788.09" y1="1132.797" x2="1185.971" y2="1132.797" style="stroke:#475569;stroke-width:1.2;"/><text x="795.09" y="1127.831" fill="#000" font-size="14" textLength="15.572" font-weight="700" font-family="Arial">24</text><text x="814.663" y="1127.831" fill="#000" font-size="14" textLength="222.558" font-family="Arial">handleGatewayCallback(txnId, true)</text><polygon points="1680.287,1174.995,1690.287,1178.995,1680.287,1182.995,1684.287,1178.995" fill="#475569" style="stroke:#475569;stroke-width:1;stroke-linejoin:miter;stroke-miterlimit:10;"/><line x1="1191.971" y1="1178.995" x2="1686.287" y2="1178.995" style="stroke:#475569;stroke-width:1.2;"/><text x="1198.971" y="1165.979" fill="#000" font-size="14" textLength="15.572" font-weight="700" font-family="Arial">25</text><text x="1218.543" y="1157.929" fill="#000" font-size="14" textLength="218.654" font-family="Arial">findByGatewayTransactionId(txnId)</text><text x="1218.543" y="1174.028" fill="#000" font-size="14" textLength="189.854" font-family="Arial">OrderStateLock.lock(payment)</text><path d="M776.09,1190.995 L833.428,1190.995 L833.428,1199.093 L823.428,1209.093 L772.09,1209.093 L772.09,1194.995 A4,4 0 0 1 776.09,1190.995" style="stroke:#000;stroke-width:1.5;" fill="#F8FAFC"/><rect x="772.09" y="1190.995" width="1138.861" height="342.381" fill="none" style="stroke:#94A3B8;stroke-width:1.5;" rx="4" ry="4"/><text x="787.09" y="1205.126" fill="#000" font-size="14" textLength="16.338" font-weight="700" font-family="Arial">alt</text><text x="848.428" y="1206.126" fill="#000" font-size="14" textLength="336.144" font-weight="700" font-family="Arial">[Already SUCCESS and same successful callback]</text><polygon points="799.09,1238.291,789.09,1242.291,799.09,1246.291,795.09,1242.291" fill="#475569" style="stroke:#475569;stroke-width:1;stroke-linejoin:miter;stroke-miterlimit:10;"/><line x1="793.09" y1="1242.291" x2="1190.971" y2="1242.291" style="stroke:#475569;stroke-width:1.2;stroke-dasharray:2,2;"/><text x="805.09" y="1237.324" fill="#000" font-size="14" textLength="15.572" font-weight="700" font-family="Arial">26</text><text x="824.663" y="1237.324" fill="#000" font-size="14" textLength="222.571" font-family="Arial">return without duplicate notifications</text><line x1="772.09" y1="1251.291" x2="1910.952" y2="1251.291" style="stroke:#94A3B8;stroke-width:1;stroke-dasharray:2,2;"/><text x="777.09" y="1266.422" fill="#000" font-size="14" textLength="397.469" font-weight="700" font-family="Arial">[Current payment not refunded and transaction unchanged]</text><polygon points="1680.287,1306.586,1690.287,1310.586,1680.287,1314.586,1684.287,1310.586" fill="#475569" style="stroke:#475569;stroke-width:1;stroke-linejoin:miter;stroke-miterlimit:10;"/><line x1="1191.971" y1="1310.586" x2="1686.287" y2="1310.586" style="stroke:#475569;stroke-width:1.2;"/><text x="1198.971" y="1297.57" fill="#000" font-size="14" textLength="15.572" font-weight="700" font-family="Arial">27</text><text x="1218.543" y="1289.521" fill="#000" font-size="14" textLength="212.44" font-family="Arial">Payment=SUCCESS, paidAt=now</text><text x="1218.543" y="1305.62" fill="#000" font-size="14" textLength="456.743" font-family="Arial">Group=PAID; pending/null/waiting orders=WAITING_SELLER_CONFIRM</text><path d="M1160.971,1322.586 L1223.737,1322.586 L1223.737,1330.685 L1213.737,1340.685 L1156.971,1340.685 L1156.971,1326.586 A4,4 0 0 1 1160.971,1322.586" style="stroke:#000;stroke-width:1.5;" fill="#F8FAFC"/><rect x="1156.971" y="1322.586" width="728.98" height="136.592" fill="none" style="stroke:#94A3B8;stroke-width:1.5;" rx="4" ry="4"/><text x="1171.971" y="1336.718" fill="#000" font-size="14" textLength="21.766" font-weight="700" font-family="Arial">opt</text><text x="1238.737" y="1337.718" fill="#000" font-size="14" textLength="206.165" font-weight="700" font-family="Arial">[NotificationService is present]</text><polygon points="1832.952,1369.882,1842.952,1373.882,1832.952,1377.882,1836.952,1373.882" fill="#475569" style="stroke:#475569;stroke-width:1;stroke-linejoin:miter;stroke-miterlimit:10;"/><line x1="1191.971" y1="1373.882" x2="1838.952" y2="1373.882" style="stroke:#475569;stroke-width:1.2;"/><text x="1198.971" y="1368.916" fill="#000" font-size="14" textLength="15.572" font-weight="700" font-family="Arial">28</text><text x="1218.543" y="1368.916" fill="#000" font-size="14" textLength="291.785" font-family="Arial">notifyCustomerOrderPaid(customerId, groupId)</text><path d="M1179.971,1385.882 L1250.516,1385.882 L1250.516,1393.981 L1240.516,1403.981 L1175.971,1403.981 L1175.971,1389.882 A4,4 0 0 1 1179.971,1385.882" style="stroke:#000;stroke-width:1.5;" fill="#F8FAFC"/><rect x="1175.971" y="1385.882" width="684.98" height="59.296" fill="none" style="stroke:#94A3B8;stroke-width:1.5;" rx="4" ry="4"/><text x="1190.971" y="1400.014" fill="#000" font-size="14" textLength="29.545" font-weight="700" font-family="Arial">loop</text><text x="1265.516" y="1401.014" fill="#000" font-size="14" textLength="152.489" font-weight="700" font-family="Arial">[Each seller sub-order]</text><polygon points="1832.952,1433.178,1842.952,1437.178,1832.952,1441.178,1836.952,1437.178" fill="#475569" style="stroke:#475569;stroke-width:1;stroke-linejoin:miter;stroke-miterlimit:10;"/><line x1="1191.971" y1="1437.178" x2="1838.952" y2="1437.178" style="stroke:#475569;stroke-width:1.2;"/><text x="1198.971" y="1432.211" fill="#000" font-size="14" textLength="15.572" font-weight="700" font-family="Arial">29</text><text x="1218.543" y="1432.211" fill="#000" font-size="14" textLength="239.641" font-family="Arial">notifySellerNewOrder(sellerId, orderId)</text><polygon points="1680.287,1491.277,1690.287,1495.277,1680.287,1499.277,1684.287,1495.277" fill="#475569" style="stroke:#475569;stroke-width:1;stroke-linejoin:miter;stroke-miterlimit:10;"/><line x1="1191.971" y1="1495.277" x2="1686.287" y2="1495.277" style="stroke:#475569;stroke-width:1.2;"/><text x="1198.971" y="1490.31" fill="#000" font-size="14" textLength="15.572" font-weight="700" font-family="Arial">30</text><text x="1218.543" y="1490.31" fill="#000" font-size="14" textLength="87.158" font-family="Arial">save payment</text><polygon points="799.09,1521.375,789.09,1525.375,799.09,1529.375,795.09,1525.375" fill="#475569" style="stroke:#475569;stroke-width:1;stroke-linejoin:miter;stroke-miterlimit:10;"/><line x1="793.09" y1="1525.375" x2="1190.971" y2="1525.375" style="stroke:#475569;stroke-width:1.2;stroke-dasharray:2,2;"/><text x="805.09" y="1520.409" fill="#000" font-size="14" textLength="15.572" font-weight="700" font-family="Arial">31</text><text x="824.663" y="1520.409" fill="#000" font-size="14" textLength="64.593" font-family="Arial">processed</text><polygon points="390.499,1565.474,380.499,1569.474,390.499,1573.474,386.499,1569.474" fill="#475569" style="stroke:#475569;stroke-width:1;stroke-linejoin:miter;stroke-miterlimit:10;"/><line x1="384.499" y1="1569.474" x2="787.09" y2="1569.474" style="stroke:#475569;stroke-width:1.2;stroke-dasharray:2,2;"/><text x="396.499" y="1564.507" fill="#000" font-size="14" textLength="15.572" font-weight="700" font-family="Arial">32</text><text x="416.071" y="1564.507" fill="#000" font-size="14" textLength="145.537" font-family="Arial">200 PaymentResponse</text><polygon points="776.09,1595.573,786.09,1599.573,776.09,1603.573,780.09,1599.573" fill="#475569" style="stroke:#475569;stroke-width:1;stroke-linejoin:miter;stroke-miterlimit:10;"/><line x1="379.499" y1="1599.573" x2="782.09" y2="1599.573" style="stroke:#475569;stroke-width:1.2;"/><text x="386.499" y="1594.606" fill="#000" font-size="14" textLength="15.572" font-weight="700" font-family="Arial">33</text><text x="406.071" y="1594.606" fill="#000" font-size="14" textLength="182.875" font-family="Arial">GET /api/checkout/orders/{id}</text><polygon points="390.499,1625.671,380.499,1629.671,390.499,1633.671,386.499,1629.671" fill="#475569" style="stroke:#475569;stroke-width:1;stroke-linejoin:miter;stroke-miterlimit:10;"/><line x1="384.499" y1="1629.671" x2="787.09" y2="1629.671" style="stroke:#475569;stroke-width:1.2;stroke-dasharray:2,2;"/><text x="396.499" y="1624.705" fill="#000" font-size="14" textLength="15.572" font-weight="700" font-family="Arial">34</text><text x="416.071" y="1624.705" fill="#000" font-size="14" textLength="180.558" font-family="Arial">refreshed owned order group</text><polygon points="54.341,1655.77,44.341,1659.77,54.341,1663.77,50.341,1659.77" fill="#475569" style="stroke:#475569;stroke-width:1;stroke-linejoin:miter;stroke-miterlimit:10;"/><line x1="48.341" y1="1659.77" x2="378.499" y2="1659.77" style="stroke:#475569;stroke-width:1.2;stroke-dasharray:2,2;"/><text x="60.341" y="1654.803" fill="#000" font-size="14" textLength="15.572" font-weight="700" font-family="Arial">35</text><text x="79.914" y="1654.803" fill="#000" font-size="14" textLength="292.585" font-family="Arial">Payment successful (simulated); updated order</text><path d="M1129.67,1690.77 L1129.67,1756.77 A4,4 0 0 0 1133.67,1760.77 L1902.67,1760.77 A4,4 0 0 0 1906.67,1756.77 L1906.67,1696.77 L1896.67,1686.77 L1133.67,1686.77 A4,4 0 0 0 1129.67,1690.77" style="stroke:#D97706;stroke-width:0.5;" fill="#FFF7ED"/><path d="M1896.67,1686.77 L1896.67,1694.77 A2,2 0 0 0 1898.67,1696.77 L1906.67,1696.77 L1896.67,1686.77" style="stroke:#D97706;stroke-width:0.5;" fill="#FFF7ED"/><text x="1255.218" y="1704.902" fill="#7C2D12" font-size="14" textLength="485.563" font-family="Arial">This path calls NotificationService directly; it does not publish OrderPaidEvent.</text><text x="1255.218" y="1721" fill="#7C2D12" font-size="14" textLength="517.487" font-family="Arial">Separate internal OrderOrchestrationServiceImp.handlePaymentSuccess publishes</text><text x="1255.218" y="1737.099" fill="#7C2D12" font-size="14" textLength="475.453" font-family="Arial">OrderPaidEvent to OrderPaidNotificationObserver in the existing transaction.</text><text x="1255.218" y="1753.198" fill="#7C2D12" font-size="14" textLength="446.646" font-family="Arial">No current controller maps that orchestration success/failure entry point.</text><path d="M710.381,1775.165 L710.381,1825.165 A4,4 0 0 0 714.381,1829.165 L1765.381,1829.165 A4,4 0 0 0 1769.381,1825.165 L1769.381,1781.165 L1759.381,1771.165 L714.381,1771.165 A4,4 0 0 0 710.381,1775.165" style="stroke:#D97706;stroke-width:0.5;" fill="#FFF7ED"/><path d="M1759.381,1771.165 L1759.381,1779.165 A2,2 0 0 0 1761.381,1781.165 L1769.381,1781.165 L1759.381,1771.165" style="stroke:#D97706;stroke-width:0.5;" fill="#FFF7ED"/><text x="975.776" y="1789.296" fill="#7C2D12" font-size="14" textLength="441.991" font-family="Arial">Backend simulate also accepts false: Payment/Group become FAILED;</text><text x="975.776" y="1805.395" fill="#7C2D12" font-size="14" textLength="405.433" font-family="Arial">stock and order states remain unchanged in PaymentServiceImp.</text><text x="975.776" y="1821.494" fill="#7C2D12" font-size="14" textLength="519.825" font-family="Arial">Refund APIs and /callback require Admin; simulation is not a real payment gateway.</text><?plantuml-src dLTRRo8t57wVN-7cfKGDJBhQbmPb9G8a6YaBA11jLwMAp8m19nvxQdkIq5N-UuzlSm4stVO5DCEvVkSx5twYF6LbHj23qZj6UaMPiqXJpGYQuLrEk4PpcfSCQohu1HgMKfftrr9mJNW6GdeRuL8BNkOh8YESQY7HoR1KMkH4dY2iK7Y82YmrJMc1mSB9XBpgtgDQyiBvYRy9cH5v8qLP9DcRrJGoRQtXbgHFejGe3l4jUGgnIC4OaGhzWgR6oY1DYLBMnc2Mj4rulJcHppGbILvOCVysoh36Awn89GUUfbLWA5vo-uGaAOIYa2mbpi_eQYy_eUcQfXOuxylbr7YleYY0WxgVRBhe0iscymMASK7Zuz14LgwMVyQCGjW4GGs8f2bAHWX3RQ0ismSjdWYlD00CKBWPU_kfHpEszbNyZMPlIpu0FSZhRr_pAu8b5C-eTckdueMJh87C7L4594JsWvFahv9AWZOMljbuCaecDouynf3p6ru_p0PVFuydY--5w-5GBjokDMbZTi5zgYXxWJP4-uUhtRG1NeTcfr4G0utH5GYlAS-QOWy76Y3MRTaFTAbCLT66N_Rmyg__3IOlrbCQwr9TUc0Yp3IoyRZK0nA82yG4tm1z2kX6oZSHSXQDvufQ5-ZZ-MzzyB6MH6rHwflOcaBEKqGOS7xcZ21l7eo90Xm3jrxm3cc9kO861rPOYgsKiTBXGkQOeS0bb4cyrgUW6qAfaDddjOeffvg2-ILlKVmCqf6AAWqKyxAV2P0IVjX04Db2QCpUh0jVUUV1e-W9YRDEq-XfKxwkP0Z1lu5odw7SEyEvABdFPPyqJE3CizgmcRn2k6tiMZgrmwfTxG2XpyIxGH0yPggHUfthaaloI58OnlV3uNW-Z-_6r_UJqNWKpmPtYsHmU_lr8Rmw6gt2u2TqNs3F2zLRTFEbk_Xzqhs_JqPBRiLiKZqlD6yJiMMxfk-7yr_t6OuwUWk6Di2tQZuR985YqGymGxcjSyWCgkQbdUuNMfR4aE2WfC1omI0HeByqC3h-Bchw9bdVrKzZ2PEYKRFtwUJ40v-gea22QqPJMtvL5WMZ950Z6HqBS0jrPSJtrH06uGgdJntzoas29Yq3rF4fTNCa6QTvwbUJgHYv5UbJZy57n-TcB9efCc0ICja58bdkAfm3M0xLTGcjx2Cwg7Q0HPUIM_ROVYyXuTJkdzPgWrARcH9EXdfaQJE9Ifu1ICPxSwoKF0LiDYGxIcB_VEbZXoc1QJRGbroyBBcjokLia8pwOHZ6l6GiVi7KLiRjciilWsHXTiryV7ixldiOJYVNoTrdwyyCkoDh6oY72k1KwEfMOArr3Z5Q37PXzDg2p23AJkhV97Q6DGOI0YQA0ernkaMAc2w1KgowDbely0CEvrPpGbwinuupP7nPExKlrttrzz4vSNI4LUKlf314iJLoPlPMtOVpyuDrjz_nxvuWXoRzwWB6kBl3hIwButSsNeYxGUjEc2dPQH-LXPd1tb9ayW0W2HBFeErrp_PkjSNM404ENjiWwYXLCfWNgMQxFgBG6O8eo_UYN34AcxUYm_ZPBFbeJk1aD9r3uPgM7BQebPXAG4L1NpGimvtQSsCZtAykiM2RgAXj7MbH-sk6EeMzBKsQb2Ez9VNcQZHYBvg8wawevpVASQ502PlZeH5ZG3bUOyfAE6D0JUvWmL6JfVcVOC1j80pbFJCNynLC6VDpg0oCA2KG1cE5LcWDJwGgPUmky1L9eSJeUf3SZaVz20gUFjavKfypWBeaEQQDUMAIFJZyUz6T7KGc76Ljn67qLGVP8CifxuS0JQxKrHI321GiZ3M_P1hP_epcefG02unk_tSfLZ85rXUju_wFvdxxCuPlJNfQzTjQa3HqabsD0Gym0d9DFoi7frKm-SUF-1d7qB1cJLNVmwgUmLJzfcSq_hj9ZsbCyu8H6zmXs4Qn_px1_v_pGEZuNRfx_tC2jAPw5pV-9zgV_W40?></g></svg>